<svg version="1.1" viewBox="0.0 0.0 724.0 371.0" fill="none" stroke="none" stroke-linecap="square" stroke-miterlimit="10" width="724" height="371" xmlns:xlink="http://www.w3.org/1999/xlink" xmlns="http://www.w3.org/2000/svg"><path fill="#ffffff" d="M0 0L724.0 0L724.0 371.0L0 371.0L0 0Z" fill-rule="nonzero"/><path stroke="#333333" stroke-width="1.0" stroke-linecap="butt" d="M91.5 265.5L705.5 265.5" fill-rule="nonzero"/><path stroke="#cccccc" stroke-width="1.0" stroke-linecap="butt" d="M91.5 224.5L705.5 224.5" fill-rule="nonzero"/><path stroke="#cccccc" stroke-width="1.0" stroke-linecap="butt" d="M91.5 184.5L705.5 184.5" fill-rule="nonzero"/><path stroke="#cccccc" stroke-width="1.0" stroke-linecap="butt" d="M91.5 143.5L705.5 143.5" fill-rule="nonzero"/><path stroke="#cccccc" stroke-width="1.0" stroke-linecap="butt" d="M91.5 102.5L705.5 102.5" fill-rule="nonzero"/><path stroke="#cccccc" stroke-width="1.0" stroke-linecap="butt" d="M91.5 61.5L705.5 61.5" fill-rule="nonzero"/><clipPath id="id_0"><path d="M91.55 61.916668L705.45 61.916668L705.45 265.65964L91.55 265.65964L91.55 61.916668Z" clip-rule="nonzero"/></clipPath><path stroke="#000000" stroke-width="2.0" stroke-linecap="butt" stroke-opacity="0.0" clip-path="url(#id_0)" d="M152.0 266.0L113.0 266.0L113.0 78.0C113.0 76.89543 113.89543 76.0 115.0 76.0L150.0 76.0C151.10457 76.0 152.0 76.89543 152.0 78.0Z" fill-rule="nonzero"/><path fill="#4285f4" clip-path="url(#id_0)" d="M152.0 266.0L113.0 266.0L113.0 78.0C113.0 76.89543 113.89543 76.0 115.0 76.0L150.0 76.0C151.10457 76.0 152.0 76.89543 152.0 78.0Z" fill-rule="nonzero"/><path stroke="#000000" stroke-width="2.0" stroke-linecap="butt" stroke-opacity="0.0" clip-path="url(#id_0)" d="M211.0 266.0L172.0 266.0L172.0 88.0C172.0 86.89543 172.89543 86.0 174.0 86.0L209.0 86.0C210.10457 86.0 211.0 86.89543 211.0 88.0Z" fill-rule="nonzero"/><path fill="#4285f4" clip-path="url(#id_0)" d="M211.0 266.0L172.0 266.0L172.0 88.0C172.0 86.89543 172.89543 86.0 174.0 86.0L209.0 86.0C210.10457 86.0 211.0 86.89543 211.0 88.0Z" fill-rule="nonzero"/><path stroke="#000000" stroke-width="2.0" stroke-linecap="butt" stroke-opacity="0.0" clip-path="url(#id_0)" d="M270.0 266.0L231.0 266.0L231.0 92.0C231.0 90.89543 231.89543 90.0 233.0 90.0L268.0 90.0C269.10458 90.0 270.0 90.89543 270.0 92.0Z" fill-rule="nonzero"/><path fill="#4285f4" clip-path="url(#id_0)" d="M270.0 266.0L231.0 266.0L231.0 92.0C231.0 90.89543 231.89543 90.0 233.0 90.0L268.0 90.0C269.10458 90.0 270.0 90.89543 270.0 92.0Z" fill-rule="nonzero"/><path stroke="#000000" stroke-width="2.0" stroke-linecap="butt" stroke-opacity="0.0" clip-path="url(#id_0)" d="M330.0 266.0L291.0 266.0L291.0 99.0C291.0 97.89543 291.89542 97.0 293.0 97.0L328.0 97.0C329.10458 97.0 330.0 97.89543 330.0 99.0Z" fill-rule="nonzero"/><path fill="#4285f4" clip-path="url(#id_0)" d="M330.0 266.0L291.0 266.0L291.0 99.0C291.0 97.89543 291.89542 97.0 293.0 97.0L328.0 97.0C329.10458 97.0 330.0 97.89543 330.0 99.0Z" fill-rule="nonzero"/><path stroke="#000000" stroke-width="2.0" stroke-linecap="butt" stroke-opacity="0.0" clip-path="url(#id_0)" d="M389.0 266.0L350.0 266.0L350.0 109.0C350.0 107.89543 350.89542 107.0 352.0 107.0L387.0 107.0C388.10458 107.0 389.0 107.89543 389.0 109.0Z" fill-rule="nonzero"/><path fill="#4285f4" clip-path="url(#id_0)" d="M389.0 266.0L350.0 266.0L350.0 109.0C350.0 107.89543 350.89542 107.0 352.0 107.0L387.0 107.0C388.10458 107.0 389.0 107.89543 389.0 109.0Z" fill-rule="nonzero"/><path stroke="#000000" stroke-width="2.0" stroke-linecap="butt" stroke-opacity="0.0" clip-path="url(#id_0)" d="M448.0 266.0L409.0 266.0L409.0 113.0C409.0 111.89543 409.89542 111.0 411.0 111.0L446.0 111.0C447.10458 111.0 448.0 111.89543 448.0 113.0Z" fill-rule="nonzero"/><path fill="#4285f4" clip-path="url(#id_0)" d="M448.0 266.0L409.0 266.0L409.0 113.0C409.0 111.89543 409.89542 111.0 411.0 111.0L446.0 111.0C447.10458 111.0 448.0 111.89543 448.0 113.0Z" fill-rule="nonzero"/><path stroke="#000000" stroke-width="2.0" stroke-linecap="butt" stroke-opacity="0.0" clip-path="url(#id_0)" d="M507.0 266.0L468.0 266.0L468.0 113.0C468.0 111.89543 468.89542 111.0 470.0 111.0L505.0 111.0C506.10458 111.0 507.0 111.89543 507.0 113.0Z" fill-rule="nonzero"/><path fill="#4285f4" clip-path="url(#id_0)" d="M507.0 266.0L468.0 266.0L468.0 113.0C468.0 111.89543 468.89542 111.0 470.0 111.0L505.0 111.0C506.10458 111.0 507.0 111.89543 507.0 113.0Z" fill-rule="nonzero"/><path stroke="#000000" stroke-width="2.0" stroke-linecap="butt" stroke-opacity="0.0" clip-path="url(#id_0)" d="M567.0 266.0L528.0 266.0L528.0 114.0C528.0 112.89543 528.89545 112.0 530.0 112.0L565.0 112.0C566.10455 112.0 567.0 112.89543 567.0 114.0Z" fill-rule="nonzero"/><path fill="#4285f4" clip-path="url(#id_0)" d="M567.0 266.0L528.0 266.0L528.0 114.0C528.0 112.89543 528.89545 112.0 530.0 112.0L565.0 112.0C566.10455 112.0 567.0 112.89543 567.0 114.0Z" fill-rule="nonzero"/><path stroke="#000000" stroke-width="2.0" stroke-linecap="butt" stroke-opacity="0.0" clip-path="url(#id_0)" d="M626.0 266.0L587.0 266.0L587.0 121.0C587.0 119.89543 587.89545 119.0 589.0 119.0L624.0 119.0C625.10455 119.0 626.0 119.89543 626.0 121.0Z" fill-rule="nonzero"/><path fill="#4285f4" clip-path="url(#id_0)" d="M626.0 266.0L587.0 266.0L587.0 121.0C587.0 119.89543 587.89545 119.0 589.0 119.0L624.0 119.0C625.10455 119.0 626.0 119.89543 626.0 121.0Z" fill-rule="nonzero"/><path stroke="#000000" stroke-width="2.0" stroke-linecap="butt" stroke-opacity="0.0" clip-path="url(#id_0)" d="M685.0 266.0L646.0 266.0L646.0 122.0C646.0 120.89543 646.89545 120.0 648.0 120.0L683.0 120.0C684.10455 120.0 685.0 120.89543 685.0 122.0Z" fill-rule="nonzero"/><path fill="#4285f4" clip-path="url(#id_0)" d="M685.0 266.0L646.0 266.0L646.0 122.0C646.0 120.89543 646.89545 120.0 648.0 120.0L683.0 120.0C684.10455 120.0 685.0 120.89543 685.0 122.0Z" fill-rule="nonzero"/><path fill="#000000" d="M391.5625 340.85626L392.70312 340.85626L392.70312 345.825Q392.70312 347.1219 392.40625 347.8875Q392.10938 348.6375 391.34375 349.1219Q390.57812 349.59064 389.34375 349.59064Q388.14062 349.59064 387.35938 349.1844Q386.59375 348.7625 386.26562 347.98126Q385.9375 347.1844 385.9375 345.825L385.9375 340.85626L387.07812 340.85626L387.07812 345.8094Q387.07812 346.9344 387.28125 347.46564Q387.5 347.9969 388.0 348.29376Q388.51562 348.575 389.25 348.575Q390.5 348.575 391.03125 348.0125Q391.5625 347.4344 391.5625 345.8094L391.5625 340.85626ZM394.375 347.59064L395.40625 347.4344Q395.5 348.0594 395.89062 348.3875Q396.29688 348.71564 397.03125 348.71564Q397.75 348.71564 398.09375 348.4344Q398.45312 348.1375 398.45312 347.73126Q398.45312 347.3719 398.14062 347.16876Q397.92188 347.02814 397.0625 346.8094Q395.90625 346.5125 395.45312 346.3094Q395.01562 346.09064 394.78125 345.71564Q394.54688 345.34064 394.54688 344.8719Q394.54688 344.46564 394.73438 344.10626Q394.92188 343.7469 395.25 343.5125Q395.5 343.34064 395.92188 343.21564Q396.34375 343.09064 396.84375 343.09064Q397.5625 343.09064 398.10938 343.3094Q398.67188 343.5125 398.9375 343.8719Q399.20312 344.23126 399.29688 344.825L398.26562 344.96564Q398.20312 344.4969 397.85938 344.23126Q397.53125 343.95 396.90625 343.95Q396.1875 343.95 395.875 344.2Q395.5625 344.4344 395.5625 344.7625Q395.5625 344.96564 395.6875 345.1219Q395.82812 345.29376 396.09375 345.40314Q396.25 345.46564 397.03125 345.66876Q398.15625 345.98126 398.59375 346.16876Q399.03125 346.35626 399.28125 346.71564Q399.53125 347.075 399.53125 347.6219Q399.53125 348.15314 399.21875 348.6219Q398.92188 349.075 398.34375 349.34064Q397.76562 349.59064 397.03125 349.59064Q395.8125 349.59064 395.17188 349.09064Q394.54688 348.575 394.375 347.59064ZM406.04688 347.45L407.14062 347.575Q406.89062 348.52814 406.1875 349.0594Q405.48438 349.59064 404.40625 349.59064Q403.04688 349.59064 402.23438 348.7469Q401.4375 347.90314 401.4375 346.3875Q401.4375 344.825 402.25 343.96564Q403.0625 343.09064 404.34375 343.09064Q405.59375 343.09064 406.375 343.9344Q407.17188 344.77814 407.17188 346.325Q407.17188 346.41876 407.17188 346.60626L402.53125 346.60626Q402.59375 347.6375 403.10938 348.1844Q403.625 348.71564 404.40625 348.71564Q404.98438 348.71564 405.39062 348.41876Q405.8125 348.10626 406.04688 347.45ZM402.59375 345.7469L406.0625 345.7469Q406.0 344.95 405.67188 344.5594Q405.15625 343.95 404.35938 343.95Q403.625 343.95 403.125 344.4344Q402.64062 344.91876 402.59375 345.7469ZM408.78125 349.45L408.78125 343.23126L409.73438 343.23126L409.73438 344.16876Q410.09375 343.5125 410.39062 343.3094Q410.70312 343.09064 411.07812 343.09064Q411.60938 343.09064 412.15625 343.41876L411.79688 344.40314Q411.40625 344.16876 411.03125 344.16876Q410.67188 344.16876 410.39062 344.3875Q410.125 344.59064 410.01562 344.96564Q409.82812 345.52814 409.82812 346.1844L409.82812 349.45L408.78125 349.45Z" fill-rule="nonzero"/><path fill="#000000" d="M26.534388 197.12083L26.831263 195.99583Q28.221888 196.35521 28.956263 197.27708Q29.690638 198.19896 29.690638 199.54271Q29.690638 200.93333 29.128138 201.80833Q28.565638 202.68333 27.503138 203.13646Q26.425013 203.58958 25.190638 203.58958Q23.846888 203.58958 22.846888 203.07396Q21.846888 202.55833 21.331263 201.62083Q20.815638 200.66771 20.815638 199.52708Q20.815638 198.24583 21.471888 197.37083Q22.128138 196.48021 23.315638 196.13646L23.581263 197.26146Q22.643763 197.55833 22.221888 198.13646Q21.784388 198.69896 21.784388 199.55833Q21.784388 200.54271 22.268763 201.21458Q22.737513 201.87083 23.534388 202.15208Q24.331263 202.41771 25.190638 202.41771Q26.284388 202.41771 27.096888 202.10521Q27.909388 201.77708 28.315638 201.10521Q28.721888 200.43333 28.721888 199.63646Q28.721888 198.68333 28.175013 198.02708Q27.628138 197.35521 26.534388 197.12083ZM26.440638 194.77708Q24.706263 194.77708 23.878138 193.82396Q23.190638 193.02708 23.190638 191.87083Q23.190638 190.58958 24.034388 189.77708Q24.862513 188.94896 26.346888 188.94896Q27.550013 188.94896 28.237513 189.30833Q28.925013 189.66771 29.315638 190.37083Q29.690638 191.05833 29.690638 191.87083Q29.690638 193.16771 28.862513 193.98021Q28.018763 194.77708 26.440638 194.77708ZM26.440638 193.69896Q27.628138 193.69896 28.221888 193.18333Q28.815638 192.65208 28.815638 191.87083Q28.815638 191.07396 28.221888 190.55833Q27.628138 190.04271 26.409388 190.04271Q25.253138 190.04271 24.659388 190.57396Q24.065638 191.08958 24.065638 191.87083Q24.065638 192.65208 24.659388 193.18333Q25.237513 193.69896 26.440638 193.69896ZM29.550013 183.30833L28.628138 183.30833Q29.690638 184.04271 29.690638 185.29271Q29.690638 185.83958 29.487513 186.32396Q29.268763 186.79271 28.956263 187.02708Q28.628138 187.26146 28.159388 187.35521Q27.862513 187.41771 27.175013 187.41771L23.331263 187.41771L23.331263 186.35521L26.784388 186.35521Q27.596888 186.35521 27.893763 186.29271Q28.300013 186.19896 28.550013 185.88646Q28.784388 185.55833 28.784388 185.07396Q28.784388 184.60521 28.550013 184.19896Q28.300013 183.77708 27.878138 183.60521Q27.456263 183.41771 26.659388 183.41771L23.331263 183.41771L23.331263 182.37083L29.550013 182.37083L29.550013 183.30833ZM29.550013 180.38646L23.331263 180.38646L23.331263 179.44896L24.206263 179.44896Q23.190638 178.76146 23.190638 177.46458Q23.190638 176.90208 23.393763 176.43333Q23.596888 175.94896 23.925013 175.71458Q24.253138 175.48021 24.690638 175.38646Q24.987513 175.33958 25.721888 175.33958L29.550013 175.33958L29.550013 176.38646L25.768763 176.38646Q25.112513 176.38646 24.800013 176.51146Q24.487513 176.63646 24.300013 176.94896Q24.096888 177.26146 24.096888 177.68333Q24.096888 178.35521 24.534388 178.85521Q24.956263 179.33958 26.143763 179.33958L29.550013 179.33958L29.550013 180.38646ZM28.612513 171.08958L29.534388 170.93333Q29.628138 171.38646 29.628138 171.73021Q29.628138 172.30833 29.456263 172.62083Q29.268763 172.93333 28.971888 173.07396Q28.675013 173.19896 27.721888 173.19896L24.143763 173.19896L24.143763 173.96458L23.331263 173.96458L23.331263 173.19896L21.784388 173.19896L21.159388 172.15208L23.331263 172.15208L23.331263 171.08958L24.143763 171.08958L24.143763 172.15208L27.784388 172.15208Q28.237513 172.15208 28.362513 172.10521Q28.487513 172.04271 28.565638 171.91771Q28.643763 171.79271 28.643763 171.55833Q28.643763 171.37083 28.612513 171.08958Z" fill-rule="nonzero"/><path fill="#000000" d="M79.05 265.42526Q79.05 263.894 79.3625 262.97214Q79.675 262.03464 80.28438 261.53464Q80.90938 261.03464 81.84688 261.03464Q82.53438 261.03464 83.05 261.3159Q83.58125 261.59714 83.925 262.1284Q84.26875 262.644 84.45625 263.394Q84.64375 264.144 84.64375 265.42526Q84.64375 266.9409 84.33125 267.86276Q84.03438 268.78464 83.40938 269.30026Q82.8 269.80026 81.84688 269.80026Q80.6125 269.80026 79.89375 268.90964Q79.05 267.84714 79.05 265.42526ZM80.12813 265.42526Q80.12813 267.53464 80.62813 268.23776Q81.12813 268.9409 81.84688 268.9409Q82.58125 268.9409 83.06563 268.23776Q83.56563 267.53464 83.56563 265.42526Q83.56563 263.30026 83.06563 262.61276Q82.58125 261.90964 81.83125 261.90964Q81.1125 261.90964 80.675 262.519Q80.12813 263.30026 80.12813 265.42526Z" fill-rule="nonzero"/><path fill="#000000" d="M55.01875 228.91104L53.971874 228.91104L53.971874 222.19229Q53.58125 222.55167 52.95625 222.92667Q52.346874 223.28604 51.8625 223.45792L51.8625 222.44229Q52.7375 222.02042 53.39375 221.44229Q54.065624 220.84854 54.346874 220.28604L55.01875 220.28604L55.01875 228.91104ZM58.05 224.67667Q58.05 223.14542 58.3625 222.22354Q58.675 221.28604 59.284374 220.78604Q59.909374 220.28604 60.846874 220.28604Q61.534374 220.28604 62.05 220.56729Q62.58125 220.84854 62.925 221.37979Q63.26875 221.89542 63.45625 222.64542Q63.64375 223.39542 63.64375 224.67667Q63.64375 226.19229 63.33125 227.11417Q63.034374 228.03604 62.409374 228.55167Q61.8 229.05167 60.846874 229.05167Q59.6125 229.05167 58.89375 228.16104Q58.05 227.09854 58.05 224.67667ZM59.128124 224.67667Q59.128124 226.78604 59.628124 227.48917Q60.128124 228.19229 60.846874 228.19229Q61.58125 228.19229 62.065624 227.48917Q62.565624 226.78604 62.565624 224.67667Q62.565624 222.55167 62.065624 221.86417Q61.58125 221.16104 60.83125 221.16104Q60.1125 221.16104 59.675 221.77042Q59.128124 222.55167 59.128124 224.67667ZM65.05 224.67667Q65.05 223.14542 65.3625 222.22354Q65.675 221.28604 66.28438 220.78604Q66.90938 220.28604 67.84688 220.28604Q68.53438 220.28604 69.05 220.56729Q69.58125 220.84854 69.925 221.37979Q70.26875 221.89542 70.45625 222.64542Q70.64375 223.39542 70.64375 224.67667Q70.64375 226.19229 70.33125 227.11417Q70.03438 228.03604 69.40938 228.55167Q68.8 229.05167 67.84688 229.05167Q66.6125 229.05167 65.89375 228.16104Q65.05 227.09854 65.05 224.67667ZM66.12813 224.67667Q66.12813 226.78604 66.62813 227.48917Q67.12813 228.19229 67.84688 228.19229Q68.58125 228.19229 69.06563 227.48917Q69.56563 226.78604 69.56563 224.67667Q69.56563 222.55167 69.06563 221.86417Q68.58125 221.16104 67.83125 221.16104Q67.1125 221.16104 66.675 221.77042Q66.12813 222.55167 66.12813 224.67667ZM72.05 224.67667Q72.05 223.14542 72.3625 222.22354Q72.675 221.28604 73.28438 220.78604Q73.90938 220.28604 74.84688 220.28604Q75.53438 220.28604 76.05 220.56729Q76.58125 220.84854 76.925 221.37979Q77.26875 221.89542 77.45625 222.64542Q77.64375 223.39542 77.64375 224.67667Q77.64375 226.19229 77.33125 227.11417Q77.03438 228.03604 76.40938 228.55167Q75.8 229.05167 74.84688 229.05167Q73.6125 229.05167 72.89375 228.16104Q72.05 227.09854 72.05 224.67667ZM73.12813 224.67667Q73.12813 226.78604 73.62813 227.48917Q74.12813 228.19229 74.84688 228.19229Q75.58125 228.19229 76.06563 227.48917Q76.56563 226.78604 76.56563 224.67667Q76.56563 222.55167 76.06563 221.86417Q75.58125 221.16104 74.83125 221.16104Q74.1125 221.16104 73.675 221.77042Q73.12813 222.55167 73.12813 224.67667ZM79.05 224.67667Q79.05 223.14542 79.3625 222.22354Q79.675 221.28604 80.28438 220.78604Q80.90938 220.28604 81.84688 220.28604Q82.53438 220.28604 83.05 220.56729Q83.58125 220.84854 83.925 221.37979Q84.26875 221.89542 84.45625 222.64542Q84.64375 223.39542 84.64375 224.67667Q84.64375 226.19229 84.33125 227.11417Q84.03438 228.03604 83.40938 228.55167Q82.8 229.05167 81.84688 229.05167Q80.6125 229.05167 79.89375 228.16104Q79.05 227.09854 79.05 224.67667ZM80.12813 224.67667Q80.12813 226.78604 80.62813 227.48917Q81.12813 228.19229 81.84688 228.19229Q82.58125 228.19229 83.06563 227.48917Q83.56563 226.78604 83.56563 224.67667Q83.56563 222.55167 83.06563 221.86417Q82.58125 221.16104 81.83125 221.16104Q81.1125 221.16104 80.675 221.77042Q80.12813 222.55167 80.12813 224.67667Z" fill-rule="nonzero"/><path fill="#000000" d="M56.596874 187.14682L56.596874 188.16245L50.909374 188.16245Q50.909374 187.78745 51.034374 187.42807Q51.253124 186.84995 51.721874 186.28745Q52.20625 185.72495 53.1125 184.99057Q54.51875 183.83432 55.003124 183.16245Q55.503124 182.49057 55.503124 181.89682Q55.503124 181.27182 55.05 180.84995Q54.596874 180.41245 53.878124 180.41245Q53.1125 180.41245 52.659374 180.86557Q52.20625 181.3187 52.190624 182.1312L51.1125 182.02182Q51.221874 180.80307 51.940624 180.17807Q52.675 179.53745 53.909374 179.53745Q55.14375 179.53745 55.8625 180.22495Q56.58125 180.91245 56.58125 181.92807Q56.58125 182.4437 56.3625 182.9437Q56.159374 183.42807 55.659374 183.99057Q55.175 184.53745 54.05 185.49057Q53.096874 186.28745 52.815624 186.58432Q52.55 186.86557 52.378124 187.14682L56.596874 187.14682ZM58.05 183.92807Q58.05 182.39682 58.3625 181.47495Q58.675 180.53745 59.284374 180.03745Q59.909374 179.53745 60.846874 179.53745Q61.534374 179.53745 62.05 179.8187Q62.58125 180.09995 62.925 180.6312Q63.26875 181.14682 63.45625 181.89682Q63.64375 182.64682 63.64375 183.92807Q63.64375 185.4437 63.33125 186.36557Q63.034374 187.28745 62.409374 187.80307Q61.8 188.30307 60.846874 188.30307Q59.6125 188.30307 58.89375 187.41245Q58.05 186.34995 58.05 183.92807ZM59.128124 183.92807Q59.128124 186.03745 59.628124 186.74057Q60.128124 187.4437 60.846874 187.4437Q61.58125 187.4437 62.065624 186.74057Q62.565624 186.03745 62.565624 183.92807Q62.565624 181.80307 62.065624 181.11557Q61.58125 180.41245 60.83125 180.41245Q60.1125 180.41245 59.675 181.02182Q59.128124 181.80307 59.128124 183.92807ZM65.05 183.92807Q65.05 182.39682 65.3625 181.47495Q65.675 180.53745 66.28438 180.03745Q66.90938 179.53745 67.84688 179.53745Q68.53438 179.53745 69.05 179.8187Q69.58125 180.09995 69.925 180.6312Q70.26875 181.14682 70.45625 181.89682Q70.64375 182.64682 70.64375 183.92807Q70.64375 185.4437 70.33125 186.36557Q70.03438 187.28745 69.40938 187.80307Q68.8 188.30307 67.84688 188.30307Q66.6125 188.30307 65.89375 187.41245Q65.05 186.34995 65.05 183.92807ZM66.12813 183.92807Q66.12813 186.03745 66.62813 186.74057Q67.12813 187.4437 67.84688 187.4437Q68.58125 187.4437 69.06563 186.74057Q69.56563 186.03745 69.56563 183.92807Q69.56563 181.80307 69.06563 181.11557Q68.58125 180.41245 67.83125 180.41245Q67.1125 180.41245 66.675 181.02182Q66.12813 181.80307 66.12813 183.92807ZM72.05 183.92807Q72.05 182.39682 72.3625 181.47495Q72.675 180.53745 73.28438 180.03745Q73.90938 179.53745 74.84688 179.53745Q75.53438 179.53745 76.05 179.8187Q76.58125 180.09995 76.925 180.6312Q77.26875 181.14682 77.45625 181.89682Q77.64375 182.64682 77.64375 183.92807Q77.64375 185.4437 77.33125 186.36557Q77.03438 187.28745 76.40938 187.80307Q75.8 188.30307 74.84688 188.30307Q73.6125 188.30307 72.89375 187.41245Q72.05 186.34995 72.05 183.92807ZM73.12813 183.92807Q73.12813 186.03745 73.62813 186.74057Q74.12813 187.4437 74.84688 187.4437Q75.58125 187.4437 76.06563 186.74057Q76.56563 186.03745 76.56563 183.92807Q76.56563 181.80307 76.06563 181.11557Q75.58125 180.41245 74.83125 180.41245Q74.1125 180.41245 73.675 181.02182Q73.12813 181.80307 73.12813 183.92807ZM79.05 183.92807Q79.05 182.39682 79.3625 181.47495Q79.675 180.53745 80.28438 180.03745Q80.90938 179.53745 81.84688 179.53745Q82.53438 179.53745 83.05 179.8187Q83.58125 180.09995 83.925 180.6312Q84.26875 181.14682 84.45625 181.89682Q84.64375 182.64682 84.64375 183.92807Q84.64375 185.4437 84.33125 186.36557Q84.03438 187.28745 83.40938 187.80307Q82.8 188.30307 81.84688 188.30307Q80.6125 188.30307 79.89375 187.41245Q79.05 186.34995 79.05 183.92807ZM80.12813 183.92807Q80.12813 186.03745 80.62813 186.74057Q81.12813 187.4437 81.84688 187.4437Q82.58125 187.4437 83.06563 186.74057Q83.56563 186.03745 83.56563 183.92807Q83.56563 181.80307 83.06563 181.11557Q82.58125 180.41245 81.83125 180.41245Q81.1125 180.41245 80.675 181.02182Q80.12813 181.80307 80.12813 183.92807Z" fill-rule="nonzero"/><path fill="#000000" d="M51.05 145.14822L52.1125 145.0076Q52.284374 145.89822 52.721874 146.30447Q53.159374 146.6951 53.784374 146.6951Q54.534374 146.6951 55.05 146.17947Q55.565624 145.66385 55.565624 144.89822Q55.565624 144.17947 55.08125 143.71072Q54.6125 143.22635 53.878124 143.22635Q53.58125 143.22635 53.128124 143.35135L53.253124 142.41385Q53.3625 142.42947 53.425 142.42947Q54.096874 142.42947 54.628124 142.08572Q55.175 141.72635 55.175 140.99197Q55.175 140.41385 54.784374 140.03885Q54.39375 139.64822 53.76875 139.64822Q53.159374 139.64822 52.7375 140.03885Q52.33125 140.42947 52.221874 141.1951L51.159374 141.0076Q51.346874 139.96072 52.034374 139.3826Q52.721874 138.78885 53.7375 138.78885Q54.440624 138.78885 55.034374 139.10135Q55.628124 139.39822 55.940624 139.91385Q56.253124 140.42947 56.253124 141.02322Q56.253124 141.5701 55.95625 142.03885Q55.659374 142.49197 55.08125 142.7576Q55.83125 142.92947 56.253124 143.49197Q56.675 144.03885 56.675 144.8826Q56.675 146.0076 55.846874 146.78885Q55.034374 147.5701 53.784374 147.5701Q52.659374 147.5701 51.909374 146.89822Q51.159374 146.21072 51.05 145.14822ZM58.05 143.17947Q58.05 141.64822 58.3625 140.72635Q58.675 139.78885 59.284374 139.28885Q59.909374 138.78885 60.846874 138.78885Q61.534374 138.78885 62.05 139.0701Q62.58125 139.35135 62.925 139.8826Q63.26875 140.39822 63.45625 141.14822Q63.64375 141.89822 63.64375 143.17947Q63.64375 144.6951 63.33125 145.61697Q63.034374 146.53885 62.409374 147.05447Q61.8 147.55447 60.846874 147.55447Q59.6125 147.55447 58.89375 146.66385Q58.05 145.60135 58.05 143.17947ZM59.128124 143.17947Q59.128124 145.28885 59.628124 145.99197Q60.128124 146.6951 60.846874 146.6951Q61.58125 146.6951 62.065624 145.99197Q62.565624 145.28885 62.565624 143.17947Q62.565624 141.05447 62.065624 140.36697Q61.58125 139.66385 60.83125 139.66385Q60.1125 139.66385 59.675 140.27322Q59.128124 141.05447 59.128124 143.17947ZM65.05 143.17947Q65.05 141.64822 65.3625 140.72635Q65.675 139.78885 66.28438 139.28885Q66.90938 138.78885 67.84688 138.78885Q68.53438 138.78885 69.05 139.0701Q69.58125 139.35135 69.925 139.8826Q70.26875 140.39822 70.45625 141.14822Q70.64375 141.89822 70.64375 143.17947Q70.64375 144.6951 70.33125 145.61697Q70.03438 146.53885 69.40938 147.05447Q68.8 147.55447 67.84688 147.55447Q66.6125 147.55447 65.89375 146.66385Q65.05 145.60135 65.05 143.17947ZM66.12813 143.17947Q66.12813 145.28885 66.62813 145.99197Q67.12813 146.6951 67.84688 146.6951Q68.58125 146.6951 69.06563 145.99197Q69.56563 145.28885 69.56563 143.17947Q69.56563 141.05447 69.06563 140.36697Q68.58125 139.66385 67.83125 139.66385Q67.1125 139.66385 66.675 140.27322Q66.12813 141.05447 66.12813 143.17947ZM72.05 143.17947Q72.05 141.64822 72.3625 140.72635Q72.675 139.78885 73.28438 139.28885Q73.90938 138.78885 74.84688 138.78885Q75.53438 138.78885 76.05 139.0701Q76.58125 139.35135 76.925 139.8826Q77.26875 140.39822 77.45625 141.14822Q77.64375 141.89822 77.64375 143.17947Q77.64375 144.6951 77.33125 145.61697Q77.03438 146.53885 76.40938 147.05447Q75.8 147.55447 74.84688 147.55447Q73.6125 147.55447 72.89375 146.66385Q72.05 145.60135 72.05 143.17947ZM73.12813 143.17947Q73.12813 145.28885 73.62813 145.99197Q74.12813 146.6951 74.84688 146.6951Q75.58125 146.6951 76.06563 145.99197Q76.56563 145.28885 76.56563 143.17947Q76.56563 141.05447 76.06563 140.36697Q75.58125 139.66385 74.83125 139.66385Q74.1125 139.66385 73.675 140.27322Q73.12813 141.05447 73.12813 143.17947ZM79.05 143.17947Q79.05 141.64822 79.3625 140.72635Q79.675 139.78885 80.28438 139.28885Q80.90938 138.78885 81.84688 138.78885Q82.53438 138.78885 83.05 139.0701Q83.58125 139.35135 83.925 139.8826Q84.26875 140.39822 84.45625 141.14822Q84.64375 141.89822 84.64375 143.17947Q84.64375 144.6951 84.33125 145.61697Q84.03438 146.53885 83.40938 147.05447Q82.8 147.55447 81.84688 147.55447Q80.6125 147.55447 79.89375 146.66385Q79.05 145.60135 79.05 143.17947ZM80.12813 143.17947Q80.12813 145.28885 80.62813 145.99197Q81.12813 146.6951 81.84688 146.6951Q82.58125 146.6951 83.06563 145.99197Q83.56563 145.28885 83.56563 143.17947Q83.56563 141.05447 83.06563 140.36697Q82.58125 139.66385 81.83125 139.66385Q81.1125 139.66385 80.675 140.27322Q80.12813 141.05447 80.12813 143.17947Z" fill-rule="nonzero"/><path fill="#000000" d="M54.425 106.66526L54.425 104.60276L50.70625 104.60276L50.70625 103.63401L54.628124 98.07151L55.4875 98.07151L55.4875 103.63401L56.64375 103.63401L56.64375 104.60276L55.4875 104.60276L55.4875 106.66526L54.425 106.66526ZM54.425 103.63401L54.425 99.774635L51.7375 103.63401L54.425 103.63401ZM58.05 102.430885Q58.05 100.899635 58.3625 99.97776Q58.675 99.04026 59.284374 98.54026Q59.909374 98.04026 60.846874 98.04026Q61.534374 98.04026 62.05 98.32151Q62.58125 98.60276 62.925 99.13401Q63.26875 99.649635 63.45625 100.399635Q63.64375 101.149635 63.64375 102.430885Q63.64375 103.94651 63.33125 104.868385Q63.034374 105.79026 62.409374 106.305885Q61.8 106.805885 60.846874 106.805885Q59.6125 106.805885 58.89375 105.91526Q58.05 104.85276 58.05 102.430885ZM59.128124 102.430885Q59.128124 104.54026 59.628124 105.243385Q60.128124 105.94651 60.846874 105.94651Q61.58125 105.94651 62.065624 105.243385Q62.565624 104.54026 62.565624 102.430885Q62.565624 100.305885 62.065624 99.618385Q61.58125 98.91526 60.83125 98.91526Q60.1125 98.91526 59.675 99.524635Q59.128124 100.305885 59.128124 102.430885ZM65.05 102.430885Q65.05 100.899635 65.3625 99.97776Q65.675 99.04026 66.28438 98.54026Q66.90938 98.04026 67.84688 98.04026Q68.53438 98.04026 69.05 98.32151Q69.58125 98.60276 69.925 99.13401Q70.26875 99.649635 70.45625 100.399635Q70.64375 101.149635 70.64375 102.430885Q70.64375 103.94651 70.33125 104.868385Q70.03438 105.79026 69.40938 106.305885Q68.8 106.805885 67.84688 106.805885Q66.6125 106.805885 65.89375 105.91526Q65.05 104.85276 65.05 102.430885ZM66.12813 102.430885Q66.12813 104.54026 66.62813 105.243385Q67.12813 105.94651 67.84688 105.94651Q68.58125 105.94651 69.06563 105.243385Q69.56563 104.54026 69.56563 102.430885Q69.56563 100.305885 69.06563 99.618385Q68.58125 98.91526 67.83125 98.91526Q67.1125 98.91526 66.675 99.524635Q66.12813 100.305885 66.12813 102.430885ZM72.05 102.430885Q72.05 100.899635 72.3625 99.97776Q72.675 99.04026 73.28438 98.54026Q73.90938 98.04026 74.84688 98.04026Q75.53438 98.04026 76.05 98.32151Q76.58125 98.60276 76.925 99.13401Q77.26875 99.649635 77.45625 100.399635Q77.64375 101.149635 77.64375 102.430885Q77.64375 103.94651 77.33125 104.868385Q77.03438 105.79026 76.40938 106.305885Q75.8 106.805885 74.84688 106.805885Q73.6125 106.805885 72.89375 105.91526Q72.05 104.85276 72.05 102.430885ZM73.12813 102.430885Q73.12813 104.54026 73.62813 105.243385Q74.12813 105.94651 74.84688 105.94651Q75.58125 105.94651 76.06563 105.243385Q76.56563 104.54026 76.56563 102.430885Q76.56563 100.305885 76.06563 99.618385Q75.58125 98.91526 74.83125 98.91526Q74.1125 98.91526 73.675 99.524635Q73.12813 100.305885 73.12813 102.430885ZM79.05 102.430885Q79.05 100.899635 79.3625 99.97776Q79.675 99.04026 80.28438 98.54026Q80.90938 98.04026 81.84688 98.04026Q82.53438 98.04026 83.05 98.32151Q83.58125 98.60276 83.925 99.13401Q84.26875 99.649635 84.45625 100.399635Q84.64375 101.149635 84.64375 102.430885Q84.64375 103.94651 84.33125 104.868385Q84.03438 105.79026 83.40938 106.305885Q82.8 106.805885 81.84688 106.805885Q80.6125 106.805885 79.89375 105.91526Q79.05 104.85276 79.05 102.430885ZM80.12813 102.430885Q80.12813 104.54026 80.62813 105.243385Q81.12813 105.94651 81.84688 105.94651Q82.58125 105.94651 83.06563 105.243385Q83.56563 104.54026 83.56563 102.430885Q83.56563 100.305885 83.06563 99.618385Q82.58125 98.91526 81.83125 98.91526Q81.1125 98.91526 80.675 99.524635Q80.12813 100.305885 80.12813 102.430885Z" fill-rule="nonzero"/><path fill="#000000" d="M51.05 63.666664L52.159374 63.572914Q52.284374 64.385414 52.721874 64.791664Q53.175 65.197914 53.815624 65.197914Q54.565624 65.197914 55.096874 64.61979Q55.628124 64.041664 55.628124 63.104164Q55.628124 62.197914 55.1125 61.68229Q54.6125 61.15104 53.784374 61.15104Q53.284374 61.15104 52.8625 61.385414Q52.45625 61.61979 52.221874 61.979164L51.2375 61.854164L52.065624 57.447914L56.346874 57.447914L56.346874 58.447914L52.909374 58.447914L52.45625 60.760414Q53.221874 60.21354 54.065624 60.21354Q55.190624 60.21354 55.95625 60.99479Q56.7375 61.77604 56.7375 63.010414Q56.7375 64.166664 56.065624 65.02604Q55.2375 66.05729 53.815624 66.05729Q52.64375 66.05729 51.89375 65.40104Q51.159374 64.74479 51.05 63.666664ZM58.05 61.68229Q58.05 60.15104 58.3625 59.229164Q58.675 58.291664 59.284374 57.791664Q59.909374 57.291664 60.846874 57.291664Q61.534374 57.291664 62.05 57.572914Q62.58125 57.854164 62.925 58.385414Q63.26875 58.90104 63.45625 59.65104Q63.64375 60.40104 63.64375 61.68229Q63.64375 63.197914 63.33125 64.11979Q63.034374 65.041664 62.409374 65.55729Q61.8 66.05729 60.846874 66.05729Q59.6125 66.05729 58.89375 65.166664Q58.05 64.104164 58.05 61.68229ZM59.128124 61.68229Q59.128124 63.791664 59.628124 64.49479Q60.128124 65.197914 60.846874 65.197914Q61.58125 65.197914 62.065624 64.49479Q62.565624 63.791664 62.565624 61.68229Q62.565624 59.55729 62.065624 58.86979Q61.58125 58.166664 60.83125 58.166664Q60.1125 58.166664 59.675 58.77604Q59.128124 59.55729 59.128124 61.68229ZM65.05 61.68229Q65.05 60.15104 65.3625 59.229164Q65.675 58.291664 66.28438 57.791664Q66.90938 57.291664 67.84688 57.291664Q68.53438 57.291664 69.05 57.572914Q69.58125 57.854164 69.925 58.385414Q70.26875 58.90104 70.45625 59.65104Q70.64375 60.40104 70.64375 61.68229Q70.64375 63.197914 70.33125 64.11979Q70.03438 65.041664 69.40938 65.55729Q68.8 66.05729 67.84688 66.05729Q66.6125 66.05729 65.89375 65.166664Q65.05 64.104164 65.05 61.68229ZM66.12813 61.68229Q66.12813 63.791664 66.62813 64.49479Q67.12813 65.197914 67.84688 65.197914Q68.58125 65.197914 69.06563 64.49479Q69.56563 63.791664 69.56563 61.68229Q69.56563 59.55729 69.06563 58.86979Q68.58125 58.166664 67.83125 58.166664Q67.1125 58.166664 66.675 58.77604Q66.12813 59.55729 66.12813 61.68229ZM72.05 61.68229Q72.05 60.15104 72.3625 59.229164Q72.675 58.291664 73.28438 57.791664Q73.90938 57.291664 74.84688 57.291664Q75.53438 57.291664 76.05 57.572914Q76.58125 57.854164 76.925 58.385414Q77.26875 58.90104 77.45625 59.65104Q77.64375 60.40104 77.64375 61.68229Q77.64375 63.197914 77.33125 64.11979Q77.03438 65.041664 76.40938 65.55729Q75.8 66.05729 74.84688 66.05729Q73.6125 66.05729 72.89375 65.166664Q72.05 64.104164 72.05 61.68229ZM73.12813 61.68229Q73.12813 63.791664 73.62813 64.49479Q74.12813 65.197914 74.84688 65.197914Q75.58125 65.197914 76.06563 64.49479Q76.56563 63.791664 76.56563 61.68229Q76.56563 59.55729 76.06563 58.86979Q75.58125 58.166664 74.83125 58.166664Q74.1125 58.166664 73.675 58.77604Q73.12813 59.55729 73.12813 61.68229ZM79.05 61.68229Q79.05 60.15104 79.3625 59.229164Q79.675 58.291664 80.28438 57.791664Q80.90938 57.291664 81.84688 57.291664Q82.53438 57.291664 83.05 57.572914Q83.58125 57.854164 83.925 58.385414Q84.26875 58.90104 84.45625 59.65104Q84.64375 60.40104 84.64375 61.68229Q84.64375 63.197914 84.33125 64.11979Q84.03438 65.041664 83.40938 65.55729Q82.8 66.05729 81.84688 66.05729Q80.6125 66.05729 79.89375 65.166664Q79.05 64.104164 79.05 61.68229ZM80.12813 61.68229Q80.12813 63.791664 80.62813 64.49479Q81.12813 65.197914 81.84688 65.197914Q82.58125 65.197914 83.06563 64.49479Q83.56563 63.791664 83.56563 61.68229Q83.56563 59.55729 83.06563 58.86979Q82.58125 58.166664 81.83125 58.166664Q81.1125 58.166664 80.675 58.77604Q80.12813 59.55729 80.12813 61.68229Z" fill-rule="nonzero"/><path fill="#000000" d="M114.57221 304.23074L108.495514 298.15405L111.19136 295.4582Q112.00895 294.6406 112.59452 294.3865Q113.18009 294.1324 113.85406 294.2981Q114.51697 294.4528 115.01415 294.94998Q115.666016 295.60184 115.68812 296.46362Q115.71021 297.3254 114.95891 298.31976Q115.434 298.15405 115.743355 298.13196Q116.41732 298.09882 117.212814 298.27557L119.930756 298.8722L118.91429 299.88867L116.85926 299.42462Q115.95328 299.22577 115.434 299.1705Q114.925766 299.10422 114.62746 299.18155Q114.32915 299.23682 114.086075 299.3694Q113.9314 299.47986 113.62204 299.78925L112.68291 300.72836L115.37875 303.4242L114.57221 304.23074ZM111.986855 300.0323L113.72147 298.29767Q114.262856 297.7563 114.46172 297.33646Q114.6606 296.8945 114.57221 296.49677Q114.483826 296.07693 114.18551 295.7786Q113.754616 295.34772 113.158 295.3919Q112.572426 295.42505 111.89846 296.09903L109.97602 298.02145L111.986855 300.0323ZM123.16798 294.55222Q123.101685 295.32562 122.85862 295.85596Q122.6266 296.37524 122.184654 296.81717Q121.45545 297.5464 120.7152 297.57953Q119.97495 297.61267 119.42252 297.06024Q119.10211 296.73984 118.98058 296.33102Q118.848 295.9112 118.936386 295.51346Q119.013725 295.10464 119.234695 294.729Q119.37833 294.4528 119.77608 293.94455Q120.57157 292.9502 120.847786 292.36462Q120.69311 292.20993 120.65996 292.1768Q120.19592 291.71274 119.79817 291.73483Q119.267845 291.77902 118.70437 292.3425Q118.18508 292.8618 118.1188 293.30374Q118.04145 293.73462 118.38396 294.3202L117.55532 294.94998Q117.19072 294.3865 117.135475 293.86722Q117.08023 293.34793 117.356445 292.76236Q117.63266 292.1768 118.19614 291.6133Q118.75961 291.04984 119.24574 290.82886Q119.73188 290.60788 120.09648 290.64102Q120.46108 290.6742 120.83674 290.91724Q121.05771 291.07193 121.55489 291.56912L122.54926 292.56348Q123.58782 293.60205 123.90823 293.83408Q124.239685 294.05502 124.637436 294.16553L123.85299 294.94998Q123.51048 294.82843 123.16798 294.55222ZM121.43336 292.9502Q121.19029 293.52472 120.50528 294.4528Q120.10753 294.98312 120.008095 295.25934Q119.897606 295.5245 119.9418 295.78967Q119.99705 296.04376 120.19592 296.24265Q120.49423 296.54095 120.91408 296.51886Q121.34497 296.48572 121.77586 296.0548Q122.20676 295.62393 122.35039 295.10464Q122.505066 294.5743 122.328285 294.0882Q122.19571 293.71252 121.70957 293.2264L121.43336 292.9502ZM126.4715 292.33145L125.77544 293.02753L119.69874 286.95084L120.450035 286.19952L122.615555 288.36505Q122.505066 287.30438 123.23427 286.57516Q123.64307 286.16638 124.162346 285.97855Q124.681625 285.76862 125.21196 285.83493Q125.753334 285.89017 126.30576 286.17743Q126.85819 286.4647 127.33328 286.9398Q128.46024 288.0667 128.51547 289.24893Q128.57071 290.43112 127.79732 291.2045Q127.01287 291.98895 125.91907 291.77902L126.4715 292.33145ZM124.22864 290.11072Q125.013084 290.89514 125.58761 291.02774Q126.515686 291.24872 127.112305 290.6521Q127.59844 290.16595 127.53215 289.39255Q127.47691 288.6081 126.626175 287.75735Q125.76439 286.89557 125.013084 286.82928Q124.26179 286.763 123.77565 287.24915Q123.28951 287.73526 123.355804 288.53076Q123.4221 289.30417 124.22864 290.11072ZM131.42123 287.3817L130.72519 288.0778L124.64848 282.00107L125.39979 281.2498L127.5653 283.41528Q127.45481 282.3546 128.18402 281.62543Q128.59282 281.2166 129.11209 281.0288Q129.63138 280.81888 130.16171 280.88516Q130.70308 280.94043 131.25551 281.2277Q131.80794 281.51495 132.28302 281.99002Q133.40997 283.11697 133.46523 284.29916Q133.52046 285.48135 132.74707 286.25476Q131.96262 287.0392 130.86882 286.82928L131.42123 287.3817ZM129.17839 285.16095Q129.96283 285.9454 130.53735 286.078Q131.46544 286.29895 132.06206 285.70233Q132.54819 285.2162 132.4819 284.4428Q132.42665 283.65836 131.57591 282.80762Q130.71413 281.94583 129.96283 281.87955Q129.21153 281.81326 128.7254 282.29938Q128.23926 282.78552 128.30556 283.58102Q128.37184 284.3544 129.17839 285.16095ZM130.47107 277.90207L129.60928 277.04028L130.36058 276.28897L131.22237 277.15076L130.47107 277.90207ZM135.68597 283.11697L131.28865 278.71967L132.03996 277.96835L136.43729 282.3657L135.68597 283.11697ZM138.76852 278.70862L139.53087 279.25Q139.27675 279.6367 139.03369 279.87976Q138.6249 280.28854 138.28238 280.388Q137.92883 280.47638 137.61948 280.3659Q137.32117 280.24435 136.6472 279.5704L134.11708 277.04028L133.5757 277.58167L133.00117 277.00714L133.54256 276.46576L132.44876 275.37195L132.74707 274.18976L134.2828 275.7255L135.03412 274.9742L135.60864 275.54874L134.85733 276.30002L137.43164 278.87433Q137.75206 279.19473 137.8736 279.25Q138.00618 279.2942 138.14981 279.26105Q138.29344 279.2279 138.45917 279.06216Q138.59175 278.92957 138.76852 278.70862Z" fill-rule="nonzero"/><path fill="#000000" d="M160.15288 315.33453L160.7716 314.49484Q161.27983 314.87048 161.78807 314.8263Q162.30734 314.77106 162.82663 314.25177Q163.33487 313.74353 163.37906 313.3016Q163.42325 312.83755 163.13599 312.5503Q162.88187 312.29617 162.51727 312.37354Q162.26315 312.42877 161.50081 312.88174Q160.4733 313.4894 160.00925 313.6662Q159.54521 313.8209 159.11432 313.72144Q158.68343 313.622 158.35197 313.29056Q158.06471 313.0033 157.94318 312.61658Q157.82164 312.2299 157.88792 311.83215Q157.94318 311.53384 158.15309 311.14713Q158.36302 310.76044 158.71657 310.4069Q159.22481 309.89865 159.76619 309.66663Q160.30756 309.4125 160.7495 309.4788Q161.19145 309.5451 161.67758 309.89865L161.04782 310.7273Q160.67216 310.44003 160.24127 310.49527Q159.81038 310.5284 159.36844 310.97037Q158.8602 311.47858 158.81601 311.87634Q158.76077 312.26303 158.99278 312.49506Q159.13641 312.63867 159.3353 312.6608Q159.55626 312.6829 159.82143 312.5724Q159.9761 312.5061 160.67216 312.09732Q161.68863 311.5228 162.13057 311.346Q162.57251 311.16922 163.0034 311.24658Q163.4343 311.3239 163.821 311.7106Q164.19666 312.08627 164.30713 312.63867Q164.41762 313.169 164.19666 313.76562Q163.96463 314.3512 163.44534 314.87048Q162.58356 315.73227 161.77702 315.83173Q160.97047 315.90906 160.15288 315.33453ZM167.67694 309.1142L168.43929 309.65558Q168.18518 310.04227 167.94211 310.28534Q167.53331 310.69415 167.19081 310.79358Q166.83725 310.88196 166.5279 310.77148Q166.22958 310.64993 165.55562 309.97598L163.0255 307.44586L162.48413 307.98724L161.9096 307.41272L162.45097 306.87134L161.35718 305.77753L161.65549 304.59534L163.19124 306.1311L163.94254 305.3798L164.51706 305.9543L163.76576 306.70563L166.34007 309.27994Q166.66048 309.60034 166.78201 309.65558Q166.9146 309.69977 167.05823 309.66663Q167.20186 309.63348 167.36758 309.46774Q167.50017 309.33517 167.67694 309.1142ZM171.7207 306.39627L171.06885 305.7444Q171.30086 307.01498 170.41698 307.89886Q170.03027 308.28555 169.54414 308.48444Q169.05801 308.66122 168.67131 308.60596Q168.27356 308.53967 167.87581 308.2745Q167.6217 308.1088 167.13556 307.62265L164.41762 304.9047L165.16891 304.1534L167.61066 306.59512Q168.18518 307.16965 168.43929 307.3354Q168.79285 307.55637 169.1906 307.51218Q169.58833 307.44586 169.93085 307.10336Q170.2623 306.7719 170.38383 306.3189Q170.50537 305.84384 170.3286 305.42398Q170.16286 304.9931 169.59938 304.42963L167.24605 302.07626L167.9863 301.33603L172.38362 305.73334L171.7207 306.39627ZM175.47722 306.0206L169.38947 299.93286L170.06343 299.2589L170.6269 299.8224Q170.53851 299.24786 170.6711 298.7838Q170.81473 298.30872 171.24562 297.87784Q171.8091 297.31436 172.52725 297.17072Q173.2454 297.0271 173.98566 297.3475Q174.73695 297.65686 175.36673 298.28662Q176.0407 298.9606 176.339 299.74503Q176.64836 300.51843 176.47159 301.26974Q176.2948 302.02103 175.78658 302.52927Q175.41092 302.9049 174.95793 303.04855Q174.4939 303.18112 174.07405 303.13693L176.21747 305.28036L175.47722 306.0206ZM172.28418 301.47964Q173.13492 302.33038 173.88622 302.3967Q174.62648 302.45193 175.11261 301.9658Q175.6098 301.4686 175.5435 300.69522Q175.47722 299.9218 174.59332 299.03793Q173.75365 298.19824 173.00233 298.13196Q172.23999 298.0546 171.75386 298.54074Q171.27876 299.01584 171.35611 299.8224Q171.43344 300.6289 172.28418 301.47964ZM173.52162 294.16553L172.65984 293.30374L173.41113 292.55243L174.27292 293.4142L173.52162 294.16553ZM178.73653 299.38043L174.33922 294.98312L175.09052 294.2318L179.48784 298.62912L178.73653 299.38043ZM183.70837 294.4086L183.15594 293.85617Q183.38797 294.92786 182.58142 295.7344Q182.0511 296.26474 181.32188 296.41943Q180.58163 296.56305 179.81929 296.28683Q179.05695 296.01062 178.38298 295.33667Q177.73111 294.6848 177.4107 293.92245Q177.0903 293.1601 177.25603 292.44196Q177.4107 291.71274 177.95209 291.17136Q178.34984 290.77362 178.82492 290.62997Q179.3 290.48636 179.76405 290.55264L177.58748 288.3761L178.32774 287.63583L184.40443 293.71252L183.70837 294.4086ZM179.15637 294.56326Q180.00711 295.414 180.78052 295.4803Q181.54286 295.53555 182.02899 295.0494Q182.51514 294.56326 182.45988 293.82303Q182.40465 293.08276 181.58705 292.26517Q180.68108 291.3592 179.90768 291.2929Q179.14532 291.21555 178.6371 291.7238Q178.13991 292.22098 178.21725 292.96124Q178.28354 293.69043 179.15637 294.56326ZM189.18846 285.70233L190.01709 285.07257Q190.64687 285.9454 190.58057 286.87347Q190.51428 287.80157 189.79613 288.5197Q188.89014 289.4257 187.75215 289.39255Q186.61415 289.3373 185.5093 288.23245Q184.80219 287.52536 184.50388 286.763Q184.20557 285.97855 184.41548 285.2383Q184.63646 284.487 185.21098 283.91248Q185.91809 283.20535 186.73567 283.11697Q187.55327 283.0065 188.35982 283.54788L187.74109 284.38757Q187.19972 284.04504 186.71358 284.08926Q186.2164 284.1224 185.84074 284.49805Q185.27727 285.06152 185.33252 285.82388Q185.37671 286.57516 186.24954 287.448Q187.14447 288.34293 187.88472 288.3982Q188.62498 288.45343 189.16635 287.91205Q189.60829 287.4701 189.6304 286.91766Q189.66354 286.3542 189.18846 285.70233ZM194.5028 282.5314Q194.43651 283.3048 194.19345 283.83514Q193.96143 284.3544 193.51949 284.79636Q192.79028 285.52557 192.05003 285.55872Q191.30977 285.59186 190.75735 285.03943Q190.43694 284.71902 190.3154 284.3102Q190.18283 283.89038 190.27121 283.4926Q190.34856 283.08383 190.56952 282.7082Q190.71315 282.43198 191.1109 281.92374Q191.9064 280.92935 192.18262 280.34378Q192.02792 280.18912 191.99478 280.15598Q191.53075 279.69193 191.133 279.71402Q190.60266 279.7582 190.0392 280.3217Q189.51991 280.84097 189.45361 281.28293Q189.37628 281.7138 189.71878 282.29938L188.89014 282.92914Q188.52554 282.36566 188.4703 281.8464Q188.41505 281.32712 188.69127 280.74155Q188.96748 280.15598 189.53096 279.5925Q190.09444 279.02902 190.58057 278.80804Q191.06671 278.58707 191.4313 278.6202Q191.79591 278.65338 192.17155 278.89642Q192.39253 279.05112 192.88971 279.5483L193.88408 280.54266Q194.92265 281.58124 195.24306 281.81326Q195.57451 282.0342 195.97226 282.1447L195.18782 282.92914Q194.8453 282.80762 194.5028 282.5314ZM192.76819 280.92935Q192.52512 281.50388 191.8401 282.43198Q191.44235 282.9623 191.34293 283.23853Q191.23244 283.50366 191.27663 283.76883Q191.33188 284.02295 191.53075 284.22183Q191.82906 284.52014 192.2489 284.49805Q192.6798 284.4649 193.11069 284.034Q193.54158 283.60312 193.68521 283.08383Q193.83989 282.5535 193.66312 282.06735Q193.53053 281.6917 193.0444 281.20557L192.76819 280.92935ZM198.08253 278.70862L198.84488 279.25Q198.59076 279.6367 198.3477 279.87976Q197.9389 280.28854 197.59639 280.388Q197.24284 280.47638 196.93349 280.36588Q196.63518 280.24435 195.96121 279.5704L193.43109 277.04028L192.88971 277.58167L192.31519 277.00714L192.85657 276.46576L191.76277 275.37195L192.06108 274.18976L193.59682 275.7255L194.34813 274.9742L194.92265 275.54874L194.17134 276.30002L196.74565 278.87433Q197.06607 279.19473 197.1876 279.25Q197.32018 279.2942 197.4638 279.26105Q197.60744 279.2279 197.77318 279.06216Q197.90576 278.92957 198.08253 278.70862Z" fill-rule="nonzero"/><path fill="#000000" d="M214.71602 322.71497L208.63931 316.63824L209.37958 315.898L211.55614 318.07455Q211.47879 316.95868 212.27429 316.16318Q212.77147 315.666 213.3239 315.5113Q213.87633 315.33453 214.37352 315.52237Q214.85965 315.69913 215.51152 316.35098L218.29575 319.13522L217.5555 319.8755L214.77126 317.09125Q214.20778 316.52777 213.7106 316.51672Q213.21342 316.50568 212.77147 316.94763Q212.44002 317.27908 212.31848 317.75415Q212.19695 318.20715 212.36269 318.63803Q212.52841 319.04684 213.04768 319.56613L215.45627 321.9747L214.71602 322.71497ZM219.65472 317.77625L215.2574 313.37894L215.93137 312.705L216.59427 313.3679Q216.38435 312.64972 216.45064 312.29617Q216.51694 311.92053 216.78209 311.65536Q217.15775 311.27972 217.77646 311.12503L218.21841 312.0752Q217.77646 312.1857 217.5113 312.45087Q217.25719 312.705 217.213 313.05853Q217.1688 313.38998 217.35663 313.73248Q217.62178 314.26282 218.08583 314.72687L220.39497 317.036L219.65472 317.77625ZM222.49419 314.93677L218.09688 310.53946L218.75978 309.87656L219.37851 310.49527Q219.25697 309.9539 219.41165 309.42355Q219.55528 308.88217 219.99722 308.44025Q220.48335 307.9541 220.9916 307.84363Q221.51088 307.72208 221.99701 307.96515Q221.76498 306.6725 222.59363 305.84384Q223.25655 305.1809 223.96365 305.203Q224.67076 305.203 225.4331 305.96536L228.44936 308.98163L227.7091 309.72186L224.93593 306.9487Q224.49397 306.50674 224.21777 306.38522Q223.9526 306.25262 223.64325 306.3189Q223.33388 306.38522 223.06871 306.65036Q222.60468 307.1144 222.60468 307.73312Q222.61572 308.3408 223.30074 309.02582L225.85295 311.57803L225.10165 312.3293L222.24008 309.46774Q221.74289 308.97058 221.312 308.9153Q220.8811 308.83798 220.4723 309.2468Q220.1519 309.5672 220.05246 309.99808Q219.95303 310.429 220.1519 310.8709Q220.35077 311.31287 220.9474 311.9095L223.23445 314.19653L222.49419 314.93677ZM227.7975 305.23618Q226.5711 304.00977 226.6595 302.75024Q226.73683 301.70062 227.55443 300.88303Q228.4604 299.97705 229.63155 299.99915Q230.8027 299.99915 231.85231 301.04877Q232.70305 301.8995 232.93507 302.63974Q233.16708 303.38 232.94612 304.1534Q232.72514 304.9047 232.15062 305.47922Q231.2336 306.39627 230.0735 306.38522Q228.91339 306.35205 227.7975 305.23618ZM228.55984 304.47382Q229.39954 305.3135 230.18398 305.36874Q230.97948 305.41293 231.5319 304.8605Q232.09538 304.29703 232.04013 303.51257Q231.9849 302.72815 231.12311 301.86636Q230.30551 301.04877 229.51003 301.00458Q228.72557 300.94934 228.17314 301.50174Q227.62071 302.05417 227.66492 302.84967Q227.7091 303.62308 228.55984 304.47382ZM235.21106 302.2199L230.81375 297.8226L231.4877 297.14862L232.15062 297.81155Q231.9407 297.09338 232.00699 296.73984Q232.07329 296.36417 232.33844 296.09903Q232.7141 295.72336 233.33281 295.5687L233.77475 296.51886Q233.33281 296.62933 233.06764 296.8945Q232.81354 297.14862 232.76933 297.50217Q232.72514 297.83365 232.91296 298.17615Q233.17813 298.70648 233.64218 299.1705L235.95132 301.47964L235.21106 302.2199ZM238.02844 299.40253L231.95175 293.32584L232.70305 292.57452L238.77974 298.6512L238.02844 299.40253ZM241.76285 292.8397L242.62463 292.1547Q243.12183 293.00543 243.00029 293.87827Q242.87875 294.7511 242.11641 295.51343Q241.15518 296.47467 239.98404 296.45258Q238.82394 296.41943 237.75223 295.34772Q236.64738 294.24286 236.61423 293.06067Q236.57004 291.86743 237.47601 290.96146Q238.35991 290.07755 239.50896 290.12177Q240.66905 290.1549 241.76285 291.24872Q241.82915 291.315 241.96173 291.44757L238.68031 294.729Q239.4537 295.414 240.205 295.4361Q240.94527 295.44714 241.4977 294.8947Q241.90648 294.48593 241.98383 293.98874Q242.06116 293.46945 241.76285 292.8397ZM238.11684 294.07712L240.56961 291.62436Q239.96194 291.10507 239.4537 291.06088Q238.65822 290.9946 238.09474 291.55807Q237.57545 292.07733 237.5644 292.7734Q237.5644 293.4584 238.11684 294.07712ZM246.7789 294.03293L245.99446 293.42526Q246.30382 293.24847 246.49164 293.06067Q246.73471 292.8176 246.78995 292.58557Q246.8673 292.35355 246.82309 292.11047Q246.76785 291.92267 246.49164 291.31497Q246.44745 291.2487 246.38115 291.07193L240.29341 288.34293L241.09995 287.53638L244.55815 289.16052Q245.22105 289.46988 245.90607 289.8676Q245.51936 289.21576 245.21 288.55286L243.58588 285.05048L244.32613 284.3102L247.13246 290.4532Q247.5744 291.44757 247.70699 291.8674Q247.88376 292.44193 247.78432 292.87283Q247.70699 293.3037 247.35342 293.6573Q247.14351 293.8672 246.7789 294.03293ZM246.8452 287.3817L247.49706 286.53098Q248.24835 287.03918 248.84499 287.0171Q249.43056 286.98395 249.8725 286.54202Q250.40283 286.0117 250.40283 285.28247Q250.40283 284.55328 249.86145 284.0119Q249.35321 283.50366 248.67924 283.5147Q248.0053 283.50366 247.48601 284.02295Q247.2761 284.23288 247.04407 284.64166L246.46954 283.89035Q246.55794 283.82407 246.60213 283.77988Q247.07721 283.30478 247.2098 282.68607Q247.34238 282.04526 246.82309 281.52597Q246.4143 281.1172 245.87292 281.12823Q245.3205 281.12823 244.87856 281.57016Q244.44766 282.00107 244.42557 282.5756Q244.41452 283.13907 244.87856 283.75778L243.99467 284.3765Q243.387 283.50366 243.46434 282.60873Q243.53062 281.70276 244.24878 280.9846Q244.74597 280.48743 245.38678 280.28854Q246.01656 280.0786 246.60213 280.22226Q247.1877 280.36588 247.60754 280.78574Q247.99425 281.17242 248.11578 281.7138Q248.22626 282.24414 248.0053 282.84076Q248.65715 282.43195 249.35321 282.5314Q250.03822 282.61978 250.63484 283.2164Q251.43034 284.0119 251.3972 285.1499Q251.37509 286.27686 250.49121 287.16074Q249.69572 287.95624 248.6903 288.01147Q247.67383 288.05566 246.8452 287.3817ZM255.78346 281.64752L254.32506 280.18912L251.69551 282.81866L251.0105 282.13364L249.8504 275.4272L250.45807 274.81952L254.39134 278.75278L255.20894 277.9352L255.89395 278.6202L255.07635 279.4378L256.53476 280.8962L255.78346 281.64752ZM253.64005 279.5041L250.91106 276.77512L251.7397 281.40445L253.64005 279.5041Z" fill-rule="nonzero"/><path fill="#000000" d="M287.9733 308.7717L281.90765 306.0427L282.69208 305.25827L286.27182 306.93762Q286.84634 307.22488 287.43192 307.54532Q287.18884 307.10336 286.8795 306.44046L285.178 302.77234L285.94037 302.00998L288.66934 308.07562L287.9733 308.7717ZM291.553 301.9658L292.38165 301.33603Q293.0114 302.20886 292.94513 303.13693Q292.87885 304.065 292.16068 304.78317Q291.2547 305.68915 290.1167 305.656Q288.9787 305.60077 287.87384 304.4959Q287.16675 303.7888 286.86844 303.02646Q286.57013 302.242 286.78006 301.50174Q287.001 300.75046 287.57553 300.17593Q288.28265 299.4688 289.10025 299.38043Q289.91785 299.26996 290.72437 299.81134L290.10565 300.651Q289.56427 300.3085 289.07816 300.3527Q288.58096 300.38586 288.20532 300.7615Q287.64185 301.32498 287.69708 302.0873Q287.74127 302.83862 288.6141 303.71146Q289.50903 304.60638 290.2493 304.66162Q290.98953 304.7169 291.5309 304.1755Q291.97287 303.73355 291.99496 303.18112Q292.0281 302.61765 291.553 301.9658ZM292.06125 300.2864Q290.83487 299.06003 290.92325 297.80048Q291.00058 296.7509 291.81818 295.9333Q292.72415 295.0273 293.89532 295.0494Q295.06647 295.0494 296.11606 296.09903Q296.9668 296.94977 297.19882 297.69Q297.43085 298.43027 297.20987 299.20364Q296.9889 299.95496 296.41437 300.52948Q295.49734 301.4465 294.33725 301.43546Q293.17715 301.4023 292.06125 300.2864ZM292.8236 299.52408Q293.6633 300.36374 294.44772 300.419Q295.24323 300.4632 295.79565 299.91077Q296.35913 299.3473 296.3039 298.56284Q296.24866 297.77838 295.38687 296.9166Q294.56927 296.09903 293.77377 296.0548Q292.98932 295.99957 292.4369 296.552Q291.88446 297.10443 291.92868 297.89993Q291.97287 298.67334 292.8236 299.52408ZM299.48587 297.25912L293.40918 291.1824L294.16046 290.43112L297.62973 293.90036L297.59656 290.35376L298.56885 289.3815L298.50256 292.69608L303.1319 293.6131L302.21487 294.53012L298.50256 293.73462L298.49152 294.76215L300.23718 296.5078L299.48587 297.25912ZM303.70642 293.03857L297.62973 286.96188L298.381 286.21057L304.45773 292.28726L303.70642 293.03857ZM306.81107 288.6081L307.5734 289.14948Q307.3193 289.5362 307.07623 289.77924Q306.66742 290.18805 306.32492 290.28748Q305.97137 290.37585 305.66202 290.26538Q305.3637 290.14386 304.68973 289.46988L302.1596 286.93976L301.61826 287.48114L301.04373 286.90662L301.58508 286.36523L300.4913 285.27145L300.7896 284.08923L302.32535 285.625L303.07666 284.8737L303.65118 285.4482L302.89987 286.19952L305.47418 288.77383Q305.7946 289.09424 305.91614 289.14948Q306.0487 289.19366 306.19235 289.16052Q306.33597 289.12738 306.5017 288.96167Q306.63428 288.82907 306.81107 288.6081ZM308.14792 288.59705L304.32513 284.77426L303.66223 285.43716L303.0877 284.86264L303.7506 284.19974L303.2755 283.72464Q302.8336 283.2827 302.701 282.99545Q302.51318 282.58664 302.60156 282.1447Q302.701 281.6917 303.18713 281.20557Q303.50754 280.88516 303.96054 280.58685L304.49088 281.33817Q304.2257 281.53705 304.01578 281.74695Q303.67328 282.08945 303.67328 282.3767Q303.68433 282.65292 304.08206 283.0507L304.49088 283.45947L305.35266 282.5977L305.9272 283.1722L305.0654 284.034L308.88818 287.8568L308.14792 288.59705ZM310.08142 286.66354L305.6841 282.26624L306.35806 281.5923L307.02097 282.2552Q306.81107 281.53705 306.87735 281.18347Q306.94363 280.80783 307.2088 280.54266Q307.58444 280.16702 308.2032 280.01233L308.6451 280.96252Q308.2032 281.073 307.93802 281.33817Q307.6839 281.5923 307.6397 281.94583Q307.5955 282.27728 307.78333 282.61978Q308.0485 283.15012 308.51254 283.61417L310.8217 285.9233L310.08142 286.66354ZM314.5119 279.40466L315.3737 278.71967Q315.87085 279.5704 315.74933 280.44324Q315.6278 281.31607 314.86545 282.0784Q313.90424 283.03964 312.73306 283.01755Q311.57297 282.9844 310.50128 281.9127Q309.39642 280.80783 309.36328 279.62564Q309.3191 278.4324 310.22507 277.52643Q311.10895 276.64252 312.258 276.68674Q313.4181 276.71988 314.5119 277.8137Q314.5782 277.87997 314.71075 278.01254L311.42935 281.29398Q312.20276 281.97897 312.95404 282.00107Q313.6943 282.01212 314.24673 281.4597Q314.65552 281.0509 314.73285 280.5537Q314.8102 280.03442 314.5119 279.40466ZM310.86588 280.6421L313.31866 278.18933Q312.71097 277.67004 312.20276 277.62585Q311.40726 277.55957 310.84378 278.12305Q310.3245 278.6423 310.31345 279.33838Q310.31345 280.02338 310.86588 280.6421Z" fill-rule="nonzero"/><path fill="#000000" d="M342.52536 309.62244L343.2104 308.80484Q343.72964 309.21365 344.2158 309.30203Q344.70193 309.3904 345.29855 309.16946Q345.89517 308.9264 346.41446 308.4071Q346.86743 307.9541 347.0884 307.468Q347.29834 306.9708 347.23206 306.57306Q347.16577 306.1532 346.88956 305.87698Q346.6023 305.58972 346.22662 305.54553Q345.83994 305.4903 345.32065 305.72232Q344.9671 305.87698 343.92853 306.5178Q342.90103 307.14758 342.3928 307.30225Q341.7188 307.51218 341.17746 307.39062Q340.62503 307.25806 340.20517 306.8382Q339.7522 306.38522 339.60855 305.73337Q339.46494 305.0594 339.76324 304.36334Q340.06155 303.64517 340.66922 303.0375Q341.34317 302.36356 342.08344 302.06525Q342.81262 301.7559 343.51974 301.91055Q344.2158 302.0542 344.76822 302.5624L344.05008 303.39105Q343.40924 302.88284 342.7574 302.96017Q342.10553 303.0154 341.40945 303.71146Q340.68027 304.44067 340.61398 305.0373Q340.54767 305.6339 340.92334 306.00958Q341.2548 306.34103 341.69672 306.31894Q342.13867 306.29684 343.3319 305.54553Q344.5362 304.78317 345.06653 304.58432Q345.85098 304.3081 346.48074 304.42963Q347.09946 304.5401 347.59665 305.0373Q348.0828 305.52344 348.23746 306.23053Q348.3811 306.9266 348.1049 307.68893Q347.81763 308.44025 347.16577 309.0921Q346.33713 309.92075 345.54163 310.2522Q344.74612 310.56155 343.93958 310.39584Q343.14407 310.21906 342.52536 309.62244ZM351.57413 301.2587L352.40277 300.62894Q353.03253 301.50177 352.96625 302.42984Q352.89996 303.3579 352.1818 304.07608Q351.27582 304.98206 350.13782 304.9489Q348.99982 304.89368 347.89496 303.78882Q347.18787 303.0817 346.88956 302.31937Q346.59125 301.5349 346.80115 300.79465Q347.02213 300.04337 347.59665 299.46884Q348.30377 298.76172 349.12134 298.67334Q349.93893 298.56284 350.74548 299.10422L350.12677 299.9439Q349.5854 299.6014 349.09924 299.6456Q348.60208 299.67874 348.2264 300.0544Q347.66293 300.6179 347.71817 301.38022Q347.7624 302.13153 348.63522 303.00436Q349.53015 303.8993 350.2704 303.95453Q351.01065 304.0098 351.55203 303.4684Q351.99396 303.02646 352.01605 302.47403Q352.04922 301.91055 351.57413 301.2587ZM352.08237 299.5793Q350.85596 298.35294 350.94437 297.09338Q351.0217 296.0438 351.8393 295.2262Q352.74527 294.32022 353.9164 294.34232Q355.08755 294.34232 356.13718 295.3919Q356.9879 296.24265 357.21994 296.9829Q357.45197 297.72318 357.231 298.49655Q357.01 299.24786 356.4355 299.8224Q355.51846 300.7394 354.35837 300.72836Q353.19827 300.69522 352.08237 299.5793ZM352.8447 298.81696Q353.6844 299.65665 354.46884 299.7119Q355.26434 299.7561 355.81677 299.20367Q356.38025 298.6402 356.325 297.85574Q356.26974 297.0713 355.40796 296.2095Q354.5904 295.3919 353.7949 295.34772Q353.01044 295.29248 352.458 295.8449Q351.90558 296.39734 351.94977 297.19284Q351.99396 297.96622 352.8447 298.81696ZM359.68375 296.37524L355.86096 292.55243L355.19806 293.21536L354.62354 292.64084L355.28644 291.9779L354.81134 291.50284Q354.36942 291.06088 354.23682 290.77362Q354.049 290.36484 354.1374 289.92288Q354.23682 289.4699 354.72296 288.98376Q355.04337 288.66336 355.49637 288.36505L356.0267 289.11633Q355.76154 289.31522 355.5516 289.52515Q355.2091 289.86765 355.2091 290.1549Q355.22015 290.43112 355.6179 290.82886L356.0267 291.23767L356.8885 290.3759L357.463 290.9504L356.60123 291.8122L360.424 295.63498L359.68375 296.37524ZM361.80508 294.2539L357.98227 290.43112L357.31937 291.09402L356.74484 290.5195L357.40775 289.8566L356.93268 289.3815Q356.49072 288.93958 356.35815 288.6523Q356.17032 288.2435 356.2587 287.80157Q356.35815 287.34857 356.84427 286.86246Q357.1647 286.54202 357.61768 286.2437L358.148 286.99503Q357.88284 287.1939 357.6729 287.4038Q357.3304 287.74634 357.3304 288.0336Q357.34146 288.3098 357.73923 288.70755L358.148 289.11633L359.0098 288.25455L359.58432 288.82907L358.72253 289.69086L362.54532 293.51367L361.80508 294.2539ZM363.7275 292.33148L357.65082 286.25476L358.40213 285.50348L364.47882 291.58017L363.7275 292.33148ZM368.20218 286.77405Q368.1359 287.54745 367.89282 288.0778Q367.6608 288.59708 367.21887 289.039Q366.48965 289.76822 365.74942 289.80136Q365.00916 289.8345 364.45673 289.28207Q364.13632 288.96167 364.01477 288.55286Q363.8822 288.13303 363.97058 287.7353Q364.04794 287.32648 364.2689 286.95084Q364.41254 286.67462 364.81027 286.16638Q365.60577 285.17203 365.882 284.58646Q365.7273 284.43176 365.69415 284.39862Q365.23013 283.93457 364.83237 283.95667Q364.30203 284.0009 363.7386 284.56433Q363.2193 285.08362 363.15298 285.52557Q363.07565 285.95645 363.41815 286.54202L362.58954 287.1718Q362.2249 286.60834 362.16968 286.08905Q362.11444 285.56976 362.39066 284.9842Q362.66687 284.39862 363.23035 283.83514Q363.79382 283.27167 364.27994 283.0507Q364.76608 282.8297 365.13068 282.86288Q365.4953 282.89603 365.87094 283.13907Q366.09192 283.29376 366.5891 283.79095L367.58347 284.7853Q368.62204 285.82388 368.94244 286.0559Q369.2739 286.27686 369.67163 286.38736L368.8872 287.1718Q368.54468 287.05026 368.20218 286.77405ZM366.46756 285.17203Q366.2245 285.74655 365.5395 286.67462Q365.14172 287.20496 365.0423 287.48117Q364.93182 287.74634 364.976 288.0115Q365.03125 288.2656 365.23013 288.46448Q365.52844 288.7628 365.94827 288.7407Q366.37918 288.70755 366.81006 288.27664Q367.24097 287.84576 367.38458 287.32648Q367.53928 286.79614 367.3625 286.31003Q367.22992 285.93436 366.74377 285.44824L366.46756 285.17203ZM371.62723 284.43176L365.882 281.38235L366.6554 280.60898L369.8926 282.45407L371.0969 283.12802Q371.0527 283.03964 370.42294 281.99002L368.54468 278.71967L369.30704 277.9573L372.52216 279.84662L373.58282 280.46533L372.9862 279.36047L371.19635 276.06802L371.92554 275.3388L374.9418 281.1172L374.1684 281.8906L370.83173 279.94604L369.9147 279.38257L372.41168 283.6473L371.62723 284.43176Z" fill-rule="nonzero"/><path fill="#000000" d="M414.66675 300.70627L408.59006 294.62955L409.40765 293.81195L417.37363 295.3919L412.60068 290.61893L413.37405 289.84555L419.45078 295.92224L418.62213 296.7509L410.65613 295.17093L415.4291 299.9439L414.66675 300.70627ZM421.0307 294.3423L414.954 288.2656L415.7716 287.448L423.7376 289.02795L418.96463 284.25497L419.73804 283.48157L425.81473 289.5583L424.98608 290.3869L417.02008 288.80698L421.79306 293.57996L421.0307 294.3423ZM430.18994 285.18304L429.5381 284.5312Q429.7701 285.80176 428.88623 286.68567Q428.4995 287.07236 428.0134 287.27124Q427.52725 287.448 427.14056 287.39276Q426.7428 287.32648 426.34506 287.0613Q426.09094 286.89557 425.6048 286.40945L422.88687 283.6915L423.63815 282.9402L426.0799 285.38193Q426.65442 285.95645 426.90854 286.1222Q427.2621 286.34314 427.65982 286.29895Q428.0576 286.23267 428.4001 285.89017Q428.73154 285.55872 428.8531 285.1057Q428.9746 284.6306 428.79782 284.2108Q428.6321 283.77988 428.06863 283.2164L425.7153 280.86307L426.45554 280.12283L430.85287 284.52014L430.18994 285.18304ZM432.23395 283.13907L426.15723 277.06238L426.90854 276.31107L432.98523 282.38776L432.23395 283.13907ZM434.35526 281.01776L428.27856 274.94104L429.02985 274.18976L435.10657 280.26645L434.35526 281.01776Z" fill-rule="nonzero"/><path fill="#000000" d="M456.97705 317.70996L450.90033 311.63327L451.70688 310.82672L457.06543 316.18527L460.05957 313.19113L460.77774 313.90927L456.97705 317.70996ZM456.65665 307.60056L455.79486 306.73877L456.54614 305.98746L457.40793 306.84924L456.65665 307.60056ZM461.87155 312.81546L457.4742 308.41815L458.22552 307.66684L462.62283 312.06418L461.87155 312.81546ZM464.9541 308.4071L465.71643 308.9485Q465.4623 309.33517 465.21924 309.57825Q464.81046 309.98703 464.46796 310.0865Q464.1144 310.17487 463.80505 310.0644Q463.5067 309.94284 462.83276 309.2689L460.30264 306.73877L459.76126 307.28015L459.18674 306.70563L459.72812 306.16425L458.6343 305.07043L458.93262 303.88824L460.46838 305.42398L461.21967 304.6727L461.7942 305.24722L461.0429 305.9985L463.61722 308.5728Q463.93762 308.89325 464.05914 308.9485Q464.19174 308.99268 464.33536 308.95953Q464.479 308.9264 464.6447 308.76065Q464.7773 308.62808 464.9541 308.4071ZM467.0754 306.28577L467.83777 306.82715Q467.58365 307.21387 467.34058 307.45694Q466.93176 307.86572 466.58926 307.96515Q466.23572 308.05356 465.92636 307.94305Q465.62805 307.82153 464.9541 307.14755L462.42398 304.61746L461.8826 305.15884L461.30807 304.58432L461.84946 304.04294L460.75565 302.94913L461.05396 301.76694L462.5897 303.30267L463.341 302.55136L463.91553 303.1259L463.1642 303.8772L465.73853 306.4515Q466.05893 306.7719 466.18048 306.82715Q466.31305 306.87137 466.4567 306.8382Q466.6003 306.80505 466.76605 306.63934Q466.89862 306.50674 467.0754 306.28577ZM468.2134 306.4736L462.13672 300.3969L462.888 299.6456L468.96472 305.7223L468.2134 306.4736ZM471.9478 299.91077L472.8096 299.22577Q473.3068 300.0765 473.18524 300.94934Q473.06372 301.82217 472.30136 302.58453Q471.34015 303.54575 470.169 303.52365Q469.0089 303.4905 467.9372 302.4188Q466.83234 301.31393 466.7992 300.13174Q466.755 298.9385 467.66098 298.03253Q468.54486 297.14862 469.6939 297.19284Q470.854 297.22598 471.9478 298.3198Q472.0141 298.38608 472.1467 298.51865L468.86526 301.80008Q469.63867 302.48508 470.38998 302.50717Q471.13022 302.51822 471.68265 301.9658Q472.09146 301.557 472.1688 301.0598Q472.24612 300.54053 471.9478 299.91077ZM468.3018 301.1482L470.75458 298.69543Q470.1469 298.17615 469.63867 298.13196Q468.84317 298.06567 468.2797 298.62915Q467.7604 299.1484 467.74936 299.84448Q467.74936 300.52948 468.3018 301.1482ZM475.41705 299.26996L469.34036 293.19327L473.72662 288.80698L474.4448 289.52515L470.86505 293.10486L472.72122 294.96103L476.08 291.60226L476.79813 292.32043L473.43936 295.67917L475.50543 297.74527L479.22882 294.0219L479.94696 294.74005L475.41705 299.26996ZM480.96344 293.72357L476.5661 289.32626L477.22903 288.66336L477.84775 289.28207Q477.61572 288.0778 478.53275 287.16077Q478.93048 286.763 479.40558 286.57516Q479.89172 286.3763 480.28946 286.4426Q480.68723 286.50888 481.06287 286.75195Q481.30594 286.92874 481.82523 287.44803L484.5321 290.1549L483.79184 290.89517L481.1181 288.2214Q480.65408 287.7574 480.3447 287.6248Q480.03534 287.49222 479.6818 287.5806Q479.3172 287.65793 479.0189 287.95624Q478.5438 288.43134 478.4996 289.09424Q478.4554 289.73508 479.2951 290.57474L481.70367 292.98334L480.96344 293.72357ZM488.7637 285.9233L488.21127 285.37088Q488.4433 286.4426 487.63675 287.24915Q487.1064 287.77948 486.37723 287.93414Q485.63696 288.0778 484.8746 287.80157Q484.11227 287.52536 483.4383 286.85138Q482.78644 286.19952 482.46603 285.43716Q482.14563 284.67484 482.31134 283.95667Q482.46603 283.22748 483.00742 282.6861Q483.40515 282.28833 483.88025 282.1447Q484.35532 282.00107 484.81937 282.06738L482.6428 279.8908L483.38306 279.15054L489.45975 285.22726L488.7637 285.9233ZM484.2117 286.078Q485.06244 286.92874 485.83585 286.99503Q486.59818 287.05026 487.08432 286.56412Q487.57047 286.078 487.51523 285.33774Q487.45996 284.5975 486.64236 283.7799Q485.7364 282.87393 484.963 282.80762Q484.20065 282.7303 483.6924 283.23853Q483.19522 283.73572 483.27258 284.47595Q483.33887 285.20517 484.2117 286.078ZM493.74658 280.94043L493.09473 280.28854Q493.32675 281.55914 492.44287 282.44302Q492.05615 282.8297 491.57004 283.0286Q491.0839 283.20538 490.6972 283.15012Q490.29944 283.08383 489.9017 282.81866Q489.64758 282.65295 489.16144 282.1668L486.4435 279.44888L487.1948 278.69757L489.63654 281.13928Q490.21106 281.7138 490.46518 281.87955Q490.81873 282.10052 491.21646 282.05634Q491.61423 281.99002 491.95673 281.64752Q492.28818 281.31607 492.40973 280.86307Q492.53125 280.388 492.35446 279.96814Q492.18875 279.53726 491.62527 278.9738L489.27194 276.62045L490.01218 275.8802L494.40952 280.2775L493.74658 280.94043Z" fill-rule="nonzero"/><path fill="#000000" d="M531.306 302.695L525.94745 297.33646L523.9477 299.33624L523.22955 298.6181L528.0467 293.80093L528.76483 294.5191L526.754 296.52994L532.11255 301.88846L531.306 302.695ZM534.62054 299.38046L528.5439 293.30374L529.2841 292.5635L531.4607 294.74005Q531.38336 293.62415 532.17883 292.82867Q532.676 292.33148 533.22845 292.1768Q533.7809 292.00003 534.2781 292.18784Q534.7642 292.36462 535.4161 293.01648L538.2003 295.80072L537.46 296.541L534.67584 293.75674Q534.11237 293.19327 533.6152 293.18222Q533.118 293.17117 532.676 293.6131Q532.34454 293.94458 532.223 294.41965Q532.1015 294.87265 532.2672 295.30353Q532.433 295.71234 532.9523 296.23163L535.36084 298.6402L534.62054 299.38046ZM541.1613 290.0113L542.0231 289.32626Q542.52026 290.177 542.39874 291.04984Q542.2772 291.9227 541.5149 292.68503Q540.55365 293.64627 539.3825 293.62415Q538.2224 293.591 537.1507 292.51932Q536.04584 291.41446 536.0127 290.23227Q535.9685 289.039 536.87445 288.13303Q537.75836 287.24915 538.9074 287.29333Q540.0675 287.32648 541.1613 288.4203Q541.2276 288.48657 541.36017 288.61917L538.0788 291.90057Q538.8522 292.5856 539.60345 292.6077Q540.3437 292.61874 540.8961 292.0663Q541.30493 291.65753 541.38226 291.16034Q541.4596 290.64105 541.1613 290.0113ZM537.5153 291.24872L539.9681 288.79596Q539.3604 288.27667 538.8522 288.23248Q538.05664 288.16617 537.49316 288.72964Q536.97394 289.24893 536.9629 289.945Q536.9629 290.63 537.5153 291.24872ZM546.1111 285.06155L546.97284 284.37653Q547.47003 285.22726 547.3485 286.1001Q547.227 286.97293 546.4646 287.7353Q545.5034 288.6965 544.3322 288.6744Q543.1721 288.64127 542.10046 287.56955Q540.9956 286.4647 540.96246 285.2825Q540.9182 284.08926 541.8242 283.1833Q542.7081 282.2994 543.8572 282.3436Q545.0173 282.37674 546.1111 283.47055Q546.17737 283.53683 546.30994 283.66943L543.0285 286.95084Q543.80194 287.63586 544.5532 287.65796Q545.29346 287.669 545.8459 287.11658Q546.2547 286.70776 546.33203 286.2106Q546.40936 285.6913 546.1111 285.06155ZM542.465 286.29898L544.9178 283.8462Q544.3101 283.3269 543.80194 283.2827Q543.0064 283.21643 542.44293 283.7799Q541.92365 284.2992 541.9126 284.99524Q541.9126 285.68027 542.465 286.29898ZM549.4477 284.5533L543.37103 278.4766L544.1223 277.7253L550.19904 283.802L549.4477 284.5533ZM551.09393 282.90707L550.40894 279.01797L546.8182 278.3882L547.7462 277.46014L549.4477 277.8137Q549.93384 277.9242 550.2543 278.00153Q550.15485 277.54852 550.0996 277.18393L549.8013 275.40512L550.6962 274.5102L551.2376 278.10095L555.204 278.79703L554.29803 279.703L552.02203 279.23895L551.41437 279.11743L551.9889 282.01215L551.09393 282.90707Z" fill-rule="nonzero"/><path fill="#000000" d="M586.23376 303.63412L586.8635 302.80548Q587.58167 303.47946 588.0678 303.50156Q588.55396 303.52365 588.9738 303.1038Q589.2721 302.80548 589.3605 302.45193Q589.43787 302.08734 589.28314 301.77798Q589.1285 301.4465 588.6092 300.92725L584.4218 296.73984L585.2173 295.94434L589.3605 300.08755Q590.12286 300.84988 590.35486 301.45758Q590.59796 302.0542 590.42114 302.6729Q590.23334 303.28058 589.69196 303.82196Q588.8965 304.61746 588.0126 304.59537Q587.12866 304.55115 586.23376 303.63412ZM594.8516 297.38065Q594.78534 298.15405 594.54224 298.6844Q594.31024 299.20367 593.8683 299.6456Q593.1391 300.37482 592.39886 300.40796Q591.65857 300.4411 591.10614 299.88867Q590.78577 299.56827 590.66425 299.15945Q590.5316 298.73962 590.62006 298.3419Q590.6974 297.93307 590.91833 297.55743Q591.06195 297.28122 591.4597 296.77298Q592.2552 295.77863 592.53143 295.19305Q592.3768 295.03836 592.3436 295.00522Q591.8796 294.54117 591.4818 294.56326Q590.9515 294.60748 590.388 295.17096Q589.8687 295.69022 589.8024 296.13217Q589.7251 296.56305 590.0676 297.14862L589.23895 297.7784Q588.8744 297.21494 588.8191 296.69565Q588.76385 296.17636 589.0401 295.5908Q589.3163 295.00522 589.87976 294.44174Q590.44324 293.87827 590.9294 293.6573Q591.4155 293.4363 591.78015 293.46948Q592.1447 293.50262 592.5204 293.7457Q592.74133 293.90036 593.2385 294.39755L594.2329 295.3919Q595.2715 296.43048 595.59186 296.6625Q595.92334 296.88348 596.3211 296.99396L595.5366 297.7784Q595.19415 297.65686 594.8516 297.38065ZM593.117 295.77863Q592.87396 296.35315 592.1889 297.28122Q591.7912 297.81155 591.6917 298.08777Q591.58124 298.35294 591.6254 298.6181Q591.68066 298.8722 591.8796 299.07108Q592.17786 299.3694 592.5977 299.3473Q593.0286 299.31415 593.45953 298.88327Q593.8904 298.45236 594.03406 297.93307Q594.1887 297.40274 594.01196 296.91663Q593.87933 296.54095 593.3932 296.05484L593.117 295.77863ZM597.47015 295.8449L591.39343 289.76822L592.1447 289.0169L595.61395 292.48615L595.5808 288.93958L596.5531 287.9673L596.4868 291.28186L601.11615 292.19888L600.1991 293.1159L596.4868 292.32043L596.47577 293.34793L598.22144 295.0936L597.47015 295.8449ZM599.2379 289.6798Q598.01154 288.45343 598.0999 287.1939Q598.17725 286.1443 598.9948 285.3267Q599.9008 284.42072 601.07196 284.4428Q602.2431 284.4428 603.2927 285.49243Q604.14343 286.34317 604.3755 287.0834Q604.6075 287.82367 604.38654 288.59708Q604.1655 289.34836 603.591 289.92288Q602.674 290.8399 601.5139 290.82886Q600.3538 290.79572 599.2379 289.6798ZM600.00024 288.91748Q600.8399 289.75717 601.6244 289.8124Q602.41986 289.8566 602.9723 289.30417Q603.53577 288.7407 603.4805 287.95624Q603.4253 287.1718 602.5635 286.31003Q601.7459 285.49243 600.95044 285.4482Q600.16595 285.39297 599.6135 285.9454Q599.0611 286.49783 599.1053 287.29333Q599.14954 288.06674 600.00024 288.91748ZM606.6515 286.66357L602.25415 282.26624L602.9281 281.5923L603.591 282.2552Q603.3811 281.53705 603.4474 281.1835Q603.5137 280.80783 603.7789 280.54266Q604.1545 280.16702 604.7732 280.01233L605.21515 280.96252Q604.7732 281.073 604.50806 281.33817Q604.2539 281.5923 604.2097 281.94583Q604.1655 282.27728 604.3534 282.6198Q604.6185 283.15012 605.0826 283.61417L607.3917 285.9233L606.6515 286.66357ZM610.17596 283.13907L609.4799 283.83514L603.4032 277.75845L604.1545 277.00714L606.32 279.17267Q606.20953 278.112 606.9387 277.38278Q607.34753 276.974 607.8668 276.78616Q608.3861 276.57623 608.91644 276.64255Q609.4578 276.69778 610.01025 276.98505Q610.5626 277.2723 611.0377 277.7474Q612.1647 278.87433 612.2199 280.05655Q612.27515 281.23874 611.5018 282.01212Q610.71735 282.79657 609.62354 282.58664L610.17596 283.13907ZM607.9331 280.91833Q608.7175 281.70276 609.29205 281.83536Q610.22015 282.05634 610.8168 281.45972Q611.3029 280.97357 611.23663 280.20016Q611.1814 279.4157 610.3306 278.56497Q609.4689 277.7032 608.7175 277.6369Q607.96625 277.57062 607.4801 278.05676Q606.99396 278.54288 607.06024 279.33838Q607.1265 280.1118 607.9331 280.91833Z" fill-rule="nonzero"/><path fill="#000000" d="M649.07227 303.55676L642.99554 297.48007L644.2109 296.26474L649.9451 299.1263Q650.75165 299.5351 651.13837 299.74503Q650.9063 299.31415 650.48645 298.45236L647.7133 292.76236L648.7961 291.6796L654.87274 297.7563L654.09937 298.5297L649.017 293.44736L652.3316 300.29745L651.60236 301.02667L644.6749 297.61267L649.84564 302.7834L649.07227 303.55676ZM650.155 292.0442L649.2932 291.1824L650.04456 290.43112L650.9063 291.2929L650.155 292.0442ZM655.36993 297.2591L650.9726 292.8618L651.72394 292.11047L656.1212 296.5078L655.36993 297.2591ZM660.3418 292.28726L659.78937 291.73483Q660.02136 292.80655 659.21484 293.6131Q658.6845 294.14343 657.9553 294.2981Q657.215 294.44174 656.4527 294.16553Q655.69037 293.8893 655.01636 293.21533Q654.3645 292.56348 654.0441 291.80112Q653.7237 291.0388 653.8894 290.32062Q654.0441 289.59143 654.5855 289.05005Q654.9832 288.65228 655.4583 288.50867Q655.9334 288.36502 656.39746 288.43134L654.2209 286.25476L654.9611 285.5145L661.03784 291.59122L660.3418 292.28726ZM655.7898 292.44196Q656.6405 293.2927 657.41394 293.35898Q658.1763 293.4142 658.6624 292.92807Q659.14856 292.44196 659.0933 291.7017Q659.038 290.96143 658.22046 290.14386Q657.31445 289.23785 656.5411 289.17157Q655.77875 289.09424 655.2705 289.60248Q654.7733 290.09964 654.85065 290.8399Q654.91693 291.56912 655.7898 292.44196ZM662.0433 290.5858L661.29193 289.83447L660.51855 282.8297Q660.4412 282.08945 660.4302 281.48178L657.03827 284.8737L656.3201 284.15555L660.6732 279.8024L661.3914 280.52057L662.1869 288.14407L662.2532 288.93954L666.1312 285.06152L666.84937 285.77966L662.0433 290.5858ZM662.17584 280.02338L661.314 279.1616L662.06537 278.41028L662.9271 279.27206L662.17584 280.02338ZM667.39075 285.23828L662.9934 280.84097L663.74475 280.08966L668.142 284.487L667.39075 285.23828ZM669.5121 283.11697L663.43536 277.04028L664.18665 276.28897L667.65594 279.7582L667.62274 276.21164L668.59503 275.23935L668.52875 278.55392L673.1581 279.47095L672.2411 280.38797L668.52875 279.5925L668.5177 280.62L670.26337 282.36566L669.5121 283.11697Z" fill-rule="nonzero"/><path fill="#757575" d="M23.7375 37.55L23.7375 24.925L19.01875 24.925L19.01875 23.2375L30.3625 23.2375L30.3625 24.925L25.628124 24.925L25.628124 37.55L23.7375 37.55ZM31.221874 32.3625Q31.221874 29.4875 32.815624 28.096874Q34.159374 26.940624 36.08125 26.940624Q38.221874 26.940624 39.565624 28.346874Q40.925 29.753124 40.925 32.221874Q40.925 34.221874 40.33125 35.378124Q39.7375 36.51875 38.58125 37.159374Q37.440624 37.784374 36.08125 37.784374Q33.89375 37.784374 32.55 36.39375Q31.221874 34.9875 31.221874 32.3625ZM33.01875 32.3625Q33.01875 34.3625 33.878124 35.346874Q34.753124 36.33125 36.08125 36.33125Q37.39375 36.33125 38.253124 35.346874Q39.128124 34.346874 39.128124 32.3Q39.128124 30.378124 38.253124 29.39375Q37.378124 28.39375 36.08125 28.39375Q34.753124 28.39375 33.878124 29.39375Q33.01875 30.378124 33.01875 32.3625ZM42.8625 41.51875L42.8625 27.175L44.471874 27.175L44.471874 28.51875Q45.034374 27.7375 45.7375 27.346874Q46.45625 26.940624 47.471874 26.940624Q48.8 26.940624 49.815624 27.628124Q50.83125 28.315624 51.346874 29.565624Q51.878124 30.8 51.878124 32.284374Q51.878124 33.878124 51.3 35.159374Q50.7375 36.425 49.64375 37.1125Q48.55 37.784374 47.346874 37.784374Q46.471874 37.784374 45.76875 37.409374Q45.08125 37.034374 44.628124 36.471874L44.628124 41.51875L42.8625 41.51875ZM44.45625 32.425Q44.45625 34.425 45.26875 35.378124Q46.08125 36.33125 47.2375 36.33125Q48.409374 36.33125 49.2375 35.346874Q50.08125 34.3625 50.08125 32.26875Q50.08125 30.3 49.253124 29.315624Q48.440624 28.315624 47.315624 28.315624Q46.190624 28.315624 45.315624 29.378124Q44.45625 30.425 44.45625 32.425ZM66.00313 37.55L64.2375 37.55L64.2375 26.346874Q63.6125 26.95625 62.58125 27.565624Q61.55 28.159374 60.721874 28.471874L60.721874 26.76875Q62.20625 26.08125 63.3 25.096874Q64.40938 24.096874 64.8625 23.175L66.00313 23.175L66.00313 37.55ZM70.37813 30.4875Q70.37813 27.95625 70.89375 26.409374Q71.425 24.846874 72.45625 24.01875Q73.4875 23.175 75.05 23.175Q76.20625 23.175 77.06563 23.64375Q77.94063 24.096874 78.50313 24.971874Q79.06563 25.846874 79.39375 27.1125Q79.72188 28.3625 79.72188 30.4875Q79.72188 33.003124 79.19063 34.55Q78.675 36.096874 77.64375 36.95625Q76.62813 37.8 75.05 37.8Q72.97188 37.8 71.8 36.315624Q70.37813 34.51875 70.37813 30.4875ZM72.19063 30.4875Q72.19063 34.01875 73.00313 35.190624Q73.83125 36.346874 75.05 36.346874Q76.25313 36.346874 77.08125 35.175Q77.90938 34.003124 77.90938 30.4875Q77.90938 26.95625 77.08125 25.8Q76.25313 24.628124 75.03438 24.628124Q73.81563 24.628124 73.09688 25.659374Q72.19063 26.95625 72.19063 30.4875ZM94.65938 37.55L94.65938 36.01875Q93.45625 37.784374 91.37813 37.784374Q90.45625 37.784374 89.65938 37.440624Q88.8625 37.08125 88.47188 36.55Q88.09688 36.01875 87.94063 35.2375Q87.83125 34.721874 87.83125 33.596874L87.83125 27.175L89.58125 27.175L89.58125 32.925Q89.58125 34.3 89.69063 34.784374Q89.8625 35.471874 90.39375 35.878124Q90.94063 36.26875 91.72188 36.26875Q92.51875 36.26875 93.20625 35.8625Q93.90938 35.45625 94.19063 34.76875Q94.4875 34.065624 94.4875 32.7375L94.4875 27.175L96.2375 27.175L96.2375 37.55L94.65938 37.55ZM97.15938 34.45625L98.90938 34.175Q99.05 35.221874 99.72188 35.784374Q100.39375 36.33125 101.59688 36.33125Q102.8 36.33125 103.37813 35.846874Q103.97188 35.346874 103.97188 34.690624Q103.97188 34.096874 103.45625 33.753124Q103.09688 33.51875 101.65938 33.159374Q99.72188 32.659374 98.97188 32.315624Q98.2375 31.95625 97.84688 31.33125Q97.45625 30.690624 97.45625 29.925Q97.45625 29.2375 97.76875 28.64375Q98.09688 28.05 98.64375 27.659374Q99.05 27.3625 99.75313 27.159374Q100.47188 26.940624 101.28438 26.940624Q102.50313 26.940624 103.425 27.3Q104.34688 27.64375 104.78438 28.253124Q105.22188 28.846874 105.39375 29.846874L103.675 30.08125Q103.55 29.284374 102.9875 28.846874Q102.425 28.39375 101.40938 28.39375Q100.19063 28.39375 99.675 28.8Q99.15938 29.190624 99.15938 29.721874Q99.15938 30.065624 99.37813 30.346874Q99.58125 30.628124 100.05 30.815624Q100.31563 30.909374 101.59688 31.253124Q103.47188 31.753124 104.20625 32.08125Q104.94063 32.39375 105.3625 33.003124Q105.78438 33.596874 105.78438 34.503124Q105.78438 35.378124 105.26875 36.159374Q104.75313 36.940624 103.78438 37.3625Q102.81563 37.784374 101.59688 37.784374Q99.58125 37.784374 98.51875 36.940624Q97.45625 36.096874 97.15938 34.45625ZM114.97188 34.20625L116.78438 34.440624Q116.3625 36.01875 115.19063 36.909374Q114.03438 37.784374 112.22188 37.784374Q109.95625 37.784374 108.6125 36.39375Q107.28438 34.9875 107.28438 32.45625Q107.28438 29.83125 108.62813 28.39375Q109.97188 26.940624 112.12813 26.940624Q114.20625 26.940624 115.51875 28.3625Q116.84688 29.76875 116.84688 32.346874Q116.84688 32.503124 116.83125 32.815624L109.09688 32.815624Q109.19063 34.51875 110.06563 35.425Q110.94063 36.33125 112.2375 36.33125Q113.20625 36.33125 113.87813 35.83125Q114.56563 35.315624 114.97188 34.20625ZM109.19063 31.3625L114.9875 31.3625Q114.87813 30.065624 114.33125 29.409374Q113.4875 28.39375 112.14375 28.39375Q110.94063 28.39375 110.1125 29.20625Q109.28438 30.003124 109.19063 31.3625ZM118.84688 37.55L118.84688 27.175L120.425 27.175L120.425 28.753124Q121.03438 27.64375 121.55 27.3Q122.06563 26.940624 122.675 26.940624Q123.56563 26.940624 124.4875 27.503124L123.87813 29.14375Q123.2375 28.753124 122.59688 28.753124Q122.01875 28.753124 121.55 29.1125Q121.09688 29.45625 120.89375 30.065624Q120.6125 31.003124 120.6125 32.1125L120.6125 37.55L118.84688 37.55ZM125.15938 34.45625L126.90938 34.175Q127.05 35.221874 127.72188 35.784374Q128.39375 36.33125 129.59688 36.33125Q130.8 36.33125 131.37813 35.846874Q131.97188 35.346874 131.97188 34.690624Q131.97188 34.096874 131.45625 33.753124Q131.09688 33.51875 129.65938 33.159374Q127.72188 32.659374 126.97188 32.315624Q126.2375 31.95625 125.84688 31.33125Q125.45625 30.690624 125.45625 29.925Q125.45625 29.2375 125.76875 28.64375Q126.09688 28.05 126.64375 27.659374Q127.05 27.3625 127.75313 27.159374Q128.47188 26.940624 129.28438 26.940624Q130.50313 26.940624 131.425 27.3Q132.34688 27.64375 132.78438 28.253124Q133.22188 28.846874 133.39375 29.846874L131.675 30.08125Q131.55 29.284374 130.9875 28.846874Q130.425 28.39375 129.40938 28.39375Q128.19063 28.39375 127.675 28.8Q127.15938 29.190624 127.15938 29.721874Q127.15938 30.065624 127.37813 30.346874Q127.58125 30.628124 128.05 30.815624Q128.31563 30.909374 129.59688 31.253124Q131.47188 31.753124 132.20625 32.08125Q132.94063 32.39375 133.3625 33.003124Q133.78438 33.596874 133.78438 34.503124Q133.78438 35.378124 133.26875 36.159374Q132.75313 36.940624 131.78438 37.3625Q130.81563 37.784374 129.59688 37.784374Q127.58125 37.784374 126.51875 36.940624Q125.45625 36.096874 125.15938 34.45625Z" fill-rule="nonzero"/></svg>